<mxfile host="Electron" agent="Mozilla/5.0 (Windows NT 10.0; Win64; x64) AppleWebKit/537.36 (KHTML, like Gecko) draw.io/28.0.6 Chrome/138.0.7204.100 Electron/37.2.3 Safari/537.36" version="28.0.6" pages="4">
  <diagram id="Q_Xm8vgko5l4ARxJKZTn" name="Diagrama de atividade">
    <mxGraphModel dx="5704" dy="3364" grid="1" gridSize="10" guides="1" tooltips="1" connect="1" arrows="1" fold="1" page="1" pageScale="1" pageWidth="827" pageHeight="1169" math="0" shadow="0">
      <root>
        <mxCell id="0" />
        <mxCell id="1" parent="0" />
        <mxCell id="nqEl2PhKfaH1SotiXYrJ-16" value="Sistema" style="whiteSpace=wrap;strokeWidth=2;" vertex="1" parent="1">
          <mxGeometry x="3237" y="1801" width="291" height="2469" as="geometry" />
        </mxCell>
        <mxCell id="nqEl2PhKfaH1SotiXYrJ-17" value="Fornecedores" style="whiteSpace=wrap;strokeWidth=2;" vertex="1" parent="1">
          <mxGeometry x="1957" y="2010" width="1260" height="1921" as="geometry" />
        </mxCell>
        <mxCell id="nqEl2PhKfaH1SotiXYrJ-18" value="Convidado" style="whiteSpace=wrap;strokeWidth=2;" vertex="1" parent="1">
          <mxGeometry x="20" y="924" width="628" height="585" as="geometry" />
        </mxCell>
        <mxCell id="nqEl2PhKfaH1SotiXYrJ-19" value="Inteligencia Artificial" style="whiteSpace=wrap;strokeWidth=2;" vertex="1" parent="1">
          <mxGeometry x="668" y="1253" width="313" height="370" as="geometry" />
        </mxCell>
        <mxCell id="nqEl2PhKfaH1SotiXYrJ-20" value="Organizador" style="whiteSpace=wrap;strokeWidth=2;" vertex="1" parent="1">
          <mxGeometry x="1001" y="539" width="936" height="3545" as="geometry" />
        </mxCell>
        <mxCell id="nqEl2PhKfaH1SotiXYrJ-21" value="Login / Cadastro" style="whiteSpace=wrap;strokeWidth=2;" vertex="1" parent="1">
          <mxGeometry x="1334" y="564" width="179" height="54" as="geometry" />
        </mxCell>
        <mxCell id="nqEl2PhKfaH1SotiXYrJ-22" value="Criar ou Editar Evento - Tipo, Data, Hora, Local" style="whiteSpace=wrap;strokeWidth=2;" vertex="1" parent="1">
          <mxGeometry x="1119" y="668" width="260" height="78" as="geometry" />
        </mxCell>
        <mxCell id="nqEl2PhKfaH1SotiXYrJ-23" value="Gerir Espaco Convidados / Lista de Convidados" style="whiteSpace=wrap;strokeWidth=2;" vertex="1" parent="1">
          <mxGeometry x="1119" y="796" width="260" height="78" as="geometry" />
        </mxCell>
        <mxCell id="nqEl2PhKfaH1SotiXYrJ-24" value="Gerir Orcamento - Categorias e Itens" style="whiteSpace=wrap;strokeWidth=2;" vertex="1" parent="1">
          <mxGeometry x="1036" y="949" width="260" height="78" as="geometry" />
        </mxCell>
        <mxCell id="nqEl2PhKfaH1SotiXYrJ-25" value="Solicitar Sugestao de Fornecedores via IA" style="whiteSpace=wrap;strokeWidth=2;" vertex="1" parent="1">
          <mxGeometry x="1036" y="1101" width="260" height="78" as="geometry" />
        </mxCell>
        <mxCell id="nqEl2PhKfaH1SotiXYrJ-26" value="Selecionar Fornecedor entre os Top 3 sugeridos" style="whiteSpace=wrap;strokeWidth=2;" vertex="1" parent="1">
          <mxGeometry x="1448" y="1673" width="260" height="78" as="geometry" />
        </mxCell>
        <mxCell id="nqEl2PhKfaH1SotiXYrJ-27" value="Negociar Fornecedor" style="whiteSpace=wrap;strokeWidth=2;" vertex="1" parent="1">
          <mxGeometry x="1573" y="2371" width="209" height="54" as="geometry" />
        </mxCell>
        <mxCell id="nqEl2PhKfaH1SotiXYrJ-28" value="Efetuar Pagamento / Registrar Cobranca" style="whiteSpace=wrap;strokeWidth=2;" vertex="1" parent="1">
          <mxGeometry x="1633" y="2475" width="260" height="78" as="geometry" />
        </mxCell>
        <mxCell id="nqEl2PhKfaH1SotiXYrJ-29" value="Pagamento Integral ou Sinal?" style="rhombus;strokeWidth=2;whiteSpace=wrap;" vertex="1" parent="1">
          <mxGeometry x="1531" y="2603" width="278" height="278" as="geometry" />
        </mxCell>
        <mxCell id="nqEl2PhKfaH1SotiXYrJ-30" value="Tudo pronto?" style="rhombus;strokeWidth=2;whiteSpace=wrap;" vertex="1" parent="1">
          <mxGeometry x="1259" y="3243" width="146" height="146" as="geometry" />
        </mxCell>
        <mxCell id="nqEl2PhKfaH1SotiXYrJ-31" value="Checklist e Gamificacao das Tarefas" style="whiteSpace=wrap;strokeWidth=2;" vertex="1" parent="1">
          <mxGeometry x="1201" y="3461" width="260" height="78" as="geometry" />
        </mxCell>
        <mxCell id="nqEl2PhKfaH1SotiXYrJ-32" value="Pre-Evento: Confirmacoes finais" style="whiteSpace=wrap;strokeWidth=2;" vertex="1" parent="1">
          <mxGeometry x="1303" y="3724" width="260" height="78" as="geometry" />
        </mxCell>
        <mxCell id="nqEl2PhKfaH1SotiXYrJ-33" value="Pos-Evento: Avaliacoes e Relatorios" style="whiteSpace=wrap;strokeWidth=2;" vertex="1" parent="1">
          <mxGeometry x="1303" y="3981" width="260" height="78" as="geometry" />
        </mxCell>
        <mxCell id="nqEl2PhKfaH1SotiXYrJ-34" value="Analisar Categorias e Itens" style="strokeWidth=2;shape=process;whiteSpace=wrap;size=0.04;" vertex="1" parent="1">
          <mxGeometry x="705" y="1298" width="221" height="39" as="geometry" />
        </mxCell>
        <mxCell id="nqEl2PhKfaH1SotiXYrJ-35" value="Buscar Cotacoes" style="strokeWidth=2;shape=process;whiteSpace=wrap;size=0.04;" vertex="1" parent="1">
          <mxGeometry x="742" y="1426" width="147" height="39" as="geometry" />
        </mxCell>
        <mxCell id="nqEl2PhKfaH1SotiXYrJ-36" value="Sugerir Top 3 Fornecedores" style="strokeWidth=2;shape=process;whiteSpace=wrap;size=0.04;" vertex="1" parent="1">
          <mxGeometry x="703" y="1559" width="225" height="39" as="geometry" />
        </mxCell>
        <mxCell id="nqEl2PhKfaH1SotiXYrJ-37" value="Recebe Convite" style="whiteSpace=wrap;strokeWidth=2;" vertex="1" parent="1">
          <mxGeometry x="244" y="961" width="171" height="54" as="geometry" />
        </mxCell>
        <mxCell id="nqEl2PhKfaH1SotiXYrJ-38" value="🖥 Página do Convite / Espaço Digital do Evento&#xa;Convite + Info + RSVP + Interações" style="whiteSpace=wrap;strokeWidth=2;" vertex="1" parent="1">
          <mxGeometry x="199" y="1077" width="260" height="126" as="geometry" />
        </mxCell>
        <mxCell id="nqEl2PhKfaH1SotiXYrJ-39" value="Acessa Espaço dos Convidados" style="whiteSpace=wrap;strokeWidth=2;" vertex="1" parent="1">
          <mxGeometry x="199" y="1278" width="260" height="78" as="geometry" />
        </mxCell>
        <mxCell id="nqEl2PhKfaH1SotiXYrJ-40" value="Confirma Presenca - RSVP" style="whiteSpace=wrap;strokeWidth=2;" vertex="1" parent="1">
          <mxGeometry x="59" y="1418" width="244" height="54" as="geometry" />
        </mxCell>
        <mxCell id="nqEl2PhKfaH1SotiXYrJ-41" value="Espaco Interativo - Playlist, Fotos, Wishlist" style="whiteSpace=wrap;strokeWidth=2;" vertex="1" parent="1">
          <mxGeometry x="353" y="1406" width="260" height="78" as="geometry" />
        </mxCell>
        <mxCell id="nqEl2PhKfaH1SotiXYrJ-42" value="Fornecedor Escolhido" style="whiteSpace=wrap;strokeWidth=2;" vertex="1" parent="1">
          <mxGeometry x="2015" y="2035" width="213" height="54" as="geometry" />
        </mxCell>
        <mxCell id="nqEl2PhKfaH1SotiXYrJ-43" value="Fornecedor Opção 1 (IA)" style="whiteSpace=wrap;strokeWidth=2;" vertex="1" parent="1">
          <mxGeometry x="2315" y="2035" width="234" height="54" as="geometry" />
        </mxCell>
        <mxCell id="nqEl2PhKfaH1SotiXYrJ-44" value="Fornecedor Opção 2 (IA)" style="whiteSpace=wrap;strokeWidth=2;" vertex="1" parent="1">
          <mxGeometry x="2625" y="2035" width="234" height="54" as="geometry" />
        </mxCell>
        <mxCell id="nqEl2PhKfaH1SotiXYrJ-45" value="Fornecedor Opção 3 (IA)" style="whiteSpace=wrap;strokeWidth=2;" vertex="1" parent="1">
          <mxGeometry x="2935" y="2035" width="234" height="54" as="geometry" />
        </mxCell>
        <mxCell id="nqEl2PhKfaH1SotiXYrJ-46" value="Responder Cotação (Data, Prazo, Pagamento, Valor)" style="whiteSpace=wrap;strokeWidth=2;" vertex="1" parent="1">
          <mxGeometry x="1992" y="2139" width="260" height="78" as="geometry" />
        </mxCell>
        <mxCell id="nqEl2PhKfaH1SotiXYrJ-47" value="Responder Cotação (Opção 1)" style="whiteSpace=wrap;strokeWidth=2;" vertex="1" parent="1">
          <mxGeometry x="2302" y="2139" width="260" height="78" as="geometry" />
        </mxCell>
        <mxCell id="nqEl2PhKfaH1SotiXYrJ-48" value="Responder Cotação (Opção 2)" style="whiteSpace=wrap;strokeWidth=2;" vertex="1" parent="1">
          <mxGeometry x="2612" y="2139" width="260" height="78" as="geometry" />
        </mxCell>
        <mxCell id="nqEl2PhKfaH1SotiXYrJ-49" value="Responder Cotação (Opção 3)" style="whiteSpace=wrap;strokeWidth=2;" vertex="1" parent="1">
          <mxGeometry x="2922" y="2139" width="260" height="78" as="geometry" />
        </mxCell>
        <mxCell id="nqEl2PhKfaH1SotiXYrJ-50" value="Envia Proposta (Escolhido)" style="whiteSpace=wrap;strokeWidth=2;" vertex="1" parent="1">
          <mxGeometry x="1998" y="2267" width="248" height="54" as="geometry" />
        </mxCell>
        <mxCell id="nqEl2PhKfaH1SotiXYrJ-51" value="Confirma Reserva/Compra (Escolhido)" style="whiteSpace=wrap;strokeWidth=2;" vertex="1" parent="1">
          <mxGeometry x="2457" y="3115" width="260" height="78" as="geometry" />
        </mxCell>
        <mxCell id="nqEl2PhKfaH1SotiXYrJ-52" value="Executa Servico (Escolhido)" style="whiteSpace=wrap;strokeWidth=2;" vertex="1" parent="1">
          <mxGeometry x="2458" y="3852" width="257" height="54" as="geometry" />
        </mxCell>
        <mxCell id="nqEl2PhKfaH1SotiXYrJ-53" value="Persistencia de Dados - Grava 4 cotações e respostas" style="shape=cylinder3;boundedLbl=1;backgroundOutline=1;size=10;strokeWidth=2;whiteSpace=wrap;" vertex="1" parent="1">
          <mxGeometry x="3277" y="1826" width="215" height="134" as="geometry" />
        </mxCell>
        <mxCell id="nqEl2PhKfaH1SotiXYrJ-54" value="Notificacoes e Lembretes" style="shape=cylinder3;boundedLbl=1;backgroundOutline=1;size=10;strokeWidth=2;whiteSpace=wrap;" vertex="1" parent="1">
          <mxGeometry x="3291" y="3589" width="197" height="85" as="geometry" />
        </mxCell>
        <mxCell id="nqEl2PhKfaH1SotiXYrJ-55" value="Controle Financeiro - Orcamento e Pagamentos" style="shape=cylinder3;boundedLbl=1;backgroundOutline=1;size=10;strokeWidth=2;whiteSpace=wrap;" vertex="1" parent="1">
          <mxGeometry x="3272" y="2954" width="215" height="110" as="geometry" />
        </mxCell>
        <mxCell id="nqEl2PhKfaH1SotiXYrJ-56" value="Relatorios Inteligentes e Dashboards" style="shape=cylinder3;boundedLbl=1;backgroundOutline=1;size=10;strokeWidth=2;whiteSpace=wrap;" vertex="1" parent="1">
          <mxGeometry x="3272" y="4134" width="215" height="110" as="geometry" />
        </mxCell>
        <mxCell id="nqEl2PhKfaH1SotiXYrJ-57" value="Inicio" style="rounded=1;whiteSpace=wrap;arcSize=50;strokeWidth=2;" vertex="1" parent="1">
          <mxGeometry x="1392" y="450" width="64" height="39" as="geometry" />
        </mxCell>
        <mxCell id="nqEl2PhKfaH1SotiXYrJ-58" value="Fim" style="rounded=1;whiteSpace=wrap;arcSize=50;strokeWidth=2;" vertex="1" parent="1">
          <mxGeometry x="3354" y="4320" width="51" height="39" as="geometry" />
        </mxCell>
        <mxCell id="nqEl2PhKfaH1SotiXYrJ-59" value="" style="curved=1;startArrow=none;endArrow=block;exitX=0.5;exitY=1;entryX=0.5;entryY=0;rounded=0;" edge="1" parent="1" source="nqEl2PhKfaH1SotiXYrJ-57" target="nqEl2PhKfaH1SotiXYrJ-21">
          <mxGeometry relative="1" as="geometry">
            <Array as="points" />
          </mxGeometry>
        </mxCell>
        <mxCell id="nqEl2PhKfaH1SotiXYrJ-60" value="" style="curved=1;startArrow=none;endArrow=block;exitX=0;exitY=0.99;entryX=0.5;entryY=0;rounded=0;" edge="1" parent="1" source="nqEl2PhKfaH1SotiXYrJ-21" target="nqEl2PhKfaH1SotiXYrJ-22">
          <mxGeometry relative="1" as="geometry">
            <Array as="points">
              <mxPoint x="1249" y="643" />
            </Array>
          </mxGeometry>
        </mxCell>
        <mxCell id="nqEl2PhKfaH1SotiXYrJ-61" value="" style="curved=1;startArrow=none;endArrow=block;exitX=1;exitY=0.71;entryX=0;entryY=0.45;rounded=0;" edge="1" parent="1" source="nqEl2PhKfaH1SotiXYrJ-21" target="nqEl2PhKfaH1SotiXYrJ-53">
          <mxGeometry relative="1" as="geometry">
            <Array as="points">
              <mxPoint x="1832" y="643" />
              <mxPoint x="1832" y="1801" />
            </Array>
          </mxGeometry>
        </mxCell>
        <mxCell id="nqEl2PhKfaH1SotiXYrJ-62" value="" style="curved=1;startArrow=none;endArrow=block;exitX=0.5;exitY=1;entryX=0.5;entryY=0;rounded=0;" edge="1" parent="1" source="nqEl2PhKfaH1SotiXYrJ-22" target="nqEl2PhKfaH1SotiXYrJ-23">
          <mxGeometry relative="1" as="geometry">
            <Array as="points" />
          </mxGeometry>
        </mxCell>
        <mxCell id="nqEl2PhKfaH1SotiXYrJ-63" value="" style="curved=1;startArrow=none;endArrow=block;exitX=1;exitY=0.72;entryX=0;entryY=0.46;rounded=0;" edge="1" parent="1" source="nqEl2PhKfaH1SotiXYrJ-23" target="nqEl2PhKfaH1SotiXYrJ-53">
          <mxGeometry relative="1" as="geometry">
            <Array as="points">
              <mxPoint x="1743" y="899" />
              <mxPoint x="1743" y="1801" />
            </Array>
          </mxGeometry>
        </mxCell>
        <mxCell id="nqEl2PhKfaH1SotiXYrJ-64" value="" style="curved=1;startArrow=none;endArrow=block;exitX=0.11;exitY=1;entryX=1;entryY=0.37;rounded=0;" edge="1" parent="1" source="nqEl2PhKfaH1SotiXYrJ-23" target="nqEl2PhKfaH1SotiXYrJ-37">
          <mxGeometry relative="1" as="geometry">
            <Array as="points">
              <mxPoint x="1084" y="899" />
              <mxPoint x="1084" y="924" />
            </Array>
          </mxGeometry>
        </mxCell>
        <mxCell id="nqEl2PhKfaH1SotiXYrJ-65" value="" style="curved=1;startArrow=none;endArrow=block;exitX=0.31;exitY=1;entryX=0.5;entryY=0;rounded=0;" edge="1" parent="1" source="nqEl2PhKfaH1SotiXYrJ-23" target="nqEl2PhKfaH1SotiXYrJ-24">
          <mxGeometry relative="1" as="geometry">
            <Array as="points">
              <mxPoint x="1166" y="899" />
            </Array>
          </mxGeometry>
        </mxCell>
        <mxCell id="nqEl2PhKfaH1SotiXYrJ-66" value="" style="curved=1;startArrow=none;endArrow=block;exitX=0.5;exitY=1;entryX=0.5;entryY=0;rounded=0;" edge="1" parent="1" source="nqEl2PhKfaH1SotiXYrJ-37" target="nqEl2PhKfaH1SotiXYrJ-38">
          <mxGeometry relative="1" as="geometry">
            <Array as="points" />
          </mxGeometry>
        </mxCell>
        <mxCell id="nqEl2PhKfaH1SotiXYrJ-67" value="" style="curved=1;startArrow=none;endArrow=block;exitX=0.5;exitY=1;entryX=0.5;entryY=0;rounded=0;" edge="1" parent="1" source="nqEl2PhKfaH1SotiXYrJ-38" target="nqEl2PhKfaH1SotiXYrJ-39">
          <mxGeometry relative="1" as="geometry">
            <Array as="points" />
          </mxGeometry>
        </mxCell>
        <mxCell id="nqEl2PhKfaH1SotiXYrJ-68" value="" style="curved=1;startArrow=none;endArrow=block;exitX=0.15;exitY=1;entryX=0.5;entryY=0;rounded=0;" edge="1" parent="1" source="nqEl2PhKfaH1SotiXYrJ-39" target="nqEl2PhKfaH1SotiXYrJ-40">
          <mxGeometry relative="1" as="geometry">
            <Array as="points">
              <mxPoint x="181" y="1381" />
            </Array>
          </mxGeometry>
        </mxCell>
        <mxCell id="nqEl2PhKfaH1SotiXYrJ-69" value="" style="curved=1;startArrow=none;endArrow=block;exitX=0.86;exitY=1;entryX=0.5;entryY=0;rounded=0;" edge="1" parent="1" source="nqEl2PhKfaH1SotiXYrJ-39" target="nqEl2PhKfaH1SotiXYrJ-41">
          <mxGeometry relative="1" as="geometry">
            <Array as="points">
              <mxPoint x="483" y="1381" />
            </Array>
          </mxGeometry>
        </mxCell>
        <mxCell id="nqEl2PhKfaH1SotiXYrJ-70" value="" style="curved=1;startArrow=none;endArrow=block;exitX=0.5;exitY=1;entryX=0.5;entryY=0;rounded=0;" edge="1" parent="1" source="nqEl2PhKfaH1SotiXYrJ-24" target="nqEl2PhKfaH1SotiXYrJ-25">
          <mxGeometry relative="1" as="geometry">
            <Array as="points" />
          </mxGeometry>
        </mxCell>
        <mxCell id="nqEl2PhKfaH1SotiXYrJ-71" value="" style="curved=1;startArrow=none;endArrow=block;exitX=0.5;exitY=0.99;entryX=0.5;entryY=-0.01;rounded=0;" edge="1" parent="1" source="nqEl2PhKfaH1SotiXYrJ-34" target="nqEl2PhKfaH1SotiXYrJ-35">
          <mxGeometry relative="1" as="geometry">
            <Array as="points" />
          </mxGeometry>
        </mxCell>
        <mxCell id="nqEl2PhKfaH1SotiXYrJ-72" value="" style="curved=1;startArrow=none;endArrow=block;exitX=0.5;exitY=0.99;entryX=0.5;entryY=0;rounded=0;" edge="1" parent="1" source="nqEl2PhKfaH1SotiXYrJ-35" target="nqEl2PhKfaH1SotiXYrJ-36">
          <mxGeometry relative="1" as="geometry">
            <Array as="points" />
          </mxGeometry>
        </mxCell>
        <mxCell id="nqEl2PhKfaH1SotiXYrJ-73" value="" style="curved=1;startArrow=none;endArrow=block;exitX=0.5;exitY=1;entryX=0.5;entryY=0;rounded=0;" edge="1" parent="1" source="nqEl2PhKfaH1SotiXYrJ-36" target="nqEl2PhKfaH1SotiXYrJ-26">
          <mxGeometry relative="1" as="geometry">
            <Array as="points">
              <mxPoint x="816" y="1623" />
              <mxPoint x="1578" y="1648" />
            </Array>
          </mxGeometry>
        </mxCell>
        <mxCell id="nqEl2PhKfaH1SotiXYrJ-74" value="" style="curved=1;startArrow=none;endArrow=block;exitX=0.5;exitY=1;entryX=0;entryY=0.46;rounded=0;" edge="1" parent="1" source="nqEl2PhKfaH1SotiXYrJ-26" target="nqEl2PhKfaH1SotiXYrJ-53">
          <mxGeometry relative="1" as="geometry">
            <Array as="points">
              <mxPoint x="1578" y="1801" />
            </Array>
          </mxGeometry>
        </mxCell>
        <mxCell id="nqEl2PhKfaH1SotiXYrJ-75" value="" style="curved=1;startArrow=none;endArrow=block;exitX=0.17;exitY=1;entryX=1;entryY=0.42;rounded=0;" edge="1" parent="1" source="nqEl2PhKfaH1SotiXYrJ-53" target="nqEl2PhKfaH1SotiXYrJ-42">
          <mxGeometry relative="1" as="geometry">
            <Array as="points">
              <mxPoint x="3288" y="1985" />
              <mxPoint x="3288" y="2010" />
            </Array>
          </mxGeometry>
        </mxCell>
        <mxCell id="nqEl2PhKfaH1SotiXYrJ-76" value="" style="curved=1;startArrow=none;endArrow=block;exitX=0.24;exitY=1;entryX=1;entryY=0.38;rounded=0;" edge="1" parent="1" source="nqEl2PhKfaH1SotiXYrJ-53" target="nqEl2PhKfaH1SotiXYrJ-43">
          <mxGeometry relative="1" as="geometry">
            <Array as="points">
              <mxPoint x="3308" y="1985" />
              <mxPoint x="3308" y="2010" />
            </Array>
          </mxGeometry>
        </mxCell>
        <mxCell id="nqEl2PhKfaH1SotiXYrJ-77" value="" style="curved=1;startArrow=none;endArrow=block;exitX=0.31;exitY=1;entryX=1;entryY=0.32;rounded=0;" edge="1" parent="1" source="nqEl2PhKfaH1SotiXYrJ-53" target="nqEl2PhKfaH1SotiXYrJ-44">
          <mxGeometry relative="1" as="geometry">
            <Array as="points">
              <mxPoint x="3328" y="1985" />
              <mxPoint x="3328" y="2010" />
            </Array>
          </mxGeometry>
        </mxCell>
        <mxCell id="nqEl2PhKfaH1SotiXYrJ-78" value="" style="curved=1;startArrow=none;endArrow=block;exitX=0.38;exitY=1;entryX=1;entryY=0.13;rounded=0;" edge="1" parent="1" source="nqEl2PhKfaH1SotiXYrJ-53" target="nqEl2PhKfaH1SotiXYrJ-45">
          <mxGeometry relative="1" as="geometry">
            <Array as="points">
              <mxPoint x="3348" y="1985" />
              <mxPoint x="3348" y="2010" />
            </Array>
          </mxGeometry>
        </mxCell>
        <mxCell id="nqEl2PhKfaH1SotiXYrJ-79" value="" style="curved=1;startArrow=none;endArrow=block;exitX=0.5;exitY=1.01;entryX=0.5;entryY=0.01;rounded=0;" edge="1" parent="1" source="nqEl2PhKfaH1SotiXYrJ-42" target="nqEl2PhKfaH1SotiXYrJ-46">
          <mxGeometry relative="1" as="geometry">
            <Array as="points" />
          </mxGeometry>
        </mxCell>
        <mxCell id="nqEl2PhKfaH1SotiXYrJ-80" value="" style="curved=1;startArrow=none;endArrow=block;exitX=1;exitY=0.42;entryX=0.59;entryY=1;rounded=0;" edge="1" parent="1" source="nqEl2PhKfaH1SotiXYrJ-46" target="nqEl2PhKfaH1SotiXYrJ-53">
          <mxGeometry relative="1" as="geometry">
            <Array as="points">
              <mxPoint x="3411" y="2114" />
              <mxPoint x="3411" y="1985" />
            </Array>
          </mxGeometry>
        </mxCell>
        <mxCell id="nqEl2PhKfaH1SotiXYrJ-81" value="" style="curved=1;startArrow=none;endArrow=block;exitX=0.5;exitY=1.01;entryX=0.5;entryY=0.01;rounded=0;" edge="1" parent="1" source="nqEl2PhKfaH1SotiXYrJ-46" target="nqEl2PhKfaH1SotiXYrJ-50">
          <mxGeometry relative="1" as="geometry">
            <Array as="points" />
          </mxGeometry>
        </mxCell>
        <mxCell id="nqEl2PhKfaH1SotiXYrJ-82" value="" style="curved=1;startArrow=none;endArrow=block;exitX=0.5;exitY=1.01;entryX=0.5;entryY=0.01;rounded=0;" edge="1" parent="1" source="nqEl2PhKfaH1SotiXYrJ-43" target="nqEl2PhKfaH1SotiXYrJ-47">
          <mxGeometry relative="1" as="geometry">
            <Array as="points" />
          </mxGeometry>
        </mxCell>
        <mxCell id="nqEl2PhKfaH1SotiXYrJ-83" value="" style="curved=1;startArrow=none;endArrow=block;exitX=1;exitY=0.4;entryX=0.66;entryY=1;rounded=0;" edge="1" parent="1" source="nqEl2PhKfaH1SotiXYrJ-47" target="nqEl2PhKfaH1SotiXYrJ-53">
          <mxGeometry relative="1" as="geometry">
            <Array as="points">
              <mxPoint x="3431" y="2114" />
              <mxPoint x="3431" y="1985" />
            </Array>
          </mxGeometry>
        </mxCell>
        <mxCell id="nqEl2PhKfaH1SotiXYrJ-84" value="" style="curved=1;startArrow=none;endArrow=block;exitX=0.5;exitY=1.01;entryX=0.5;entryY=0.01;rounded=0;" edge="1" parent="1" source="nqEl2PhKfaH1SotiXYrJ-44" target="nqEl2PhKfaH1SotiXYrJ-48">
          <mxGeometry relative="1" as="geometry">
            <Array as="points" />
          </mxGeometry>
        </mxCell>
        <mxCell id="nqEl2PhKfaH1SotiXYrJ-85" value="" style="curved=1;startArrow=none;endArrow=block;exitX=1;exitY=0.35;entryX=0.72;entryY=1;rounded=0;" edge="1" parent="1" source="nqEl2PhKfaH1SotiXYrJ-48" target="nqEl2PhKfaH1SotiXYrJ-53">
          <mxGeometry relative="1" as="geometry">
            <Array as="points">
              <mxPoint x="3451" y="2114" />
              <mxPoint x="3451" y="1985" />
            </Array>
          </mxGeometry>
        </mxCell>
        <mxCell id="nqEl2PhKfaH1SotiXYrJ-86" value="" style="curved=1;startArrow=none;endArrow=block;exitX=0.5;exitY=1.01;entryX=0.5;entryY=0.01;rounded=0;" edge="1" parent="1" source="nqEl2PhKfaH1SotiXYrJ-45" target="nqEl2PhKfaH1SotiXYrJ-49">
          <mxGeometry relative="1" as="geometry">
            <Array as="points" />
          </mxGeometry>
        </mxCell>
        <mxCell id="nqEl2PhKfaH1SotiXYrJ-87" value="" style="curved=1;startArrow=none;endArrow=block;exitX=1;exitY=0.25;entryX=0.79;entryY=1;rounded=0;" edge="1" parent="1" source="nqEl2PhKfaH1SotiXYrJ-49" target="nqEl2PhKfaH1SotiXYrJ-53">
          <mxGeometry relative="1" as="geometry">
            <Array as="points">
              <mxPoint x="3471" y="2114" />
              <mxPoint x="3471" y="1985" />
            </Array>
          </mxGeometry>
        </mxCell>
        <mxCell id="nqEl2PhKfaH1SotiXYrJ-88" value="" style="curved=1;startArrow=none;endArrow=block;exitX=0.5;exitY=1.01;entryX=1;entryY=0.28;rounded=0;" edge="1" parent="1" source="nqEl2PhKfaH1SotiXYrJ-50" target="nqEl2PhKfaH1SotiXYrJ-27">
          <mxGeometry relative="1" as="geometry">
            <Array as="points">
              <mxPoint x="2122" y="2346" />
            </Array>
          </mxGeometry>
        </mxCell>
        <mxCell id="nqEl2PhKfaH1SotiXYrJ-89" value="" style="curved=1;startArrow=none;endArrow=block;exitX=0.71;exitY=1.01;entryX=0.5;entryY=0.01;rounded=0;" edge="1" parent="1" source="nqEl2PhKfaH1SotiXYrJ-27" target="nqEl2PhKfaH1SotiXYrJ-28">
          <mxGeometry relative="1" as="geometry">
            <Array as="points">
              <mxPoint x="1763" y="2450" />
            </Array>
          </mxGeometry>
        </mxCell>
        <mxCell id="nqEl2PhKfaH1SotiXYrJ-90" value="" style="curved=1;startArrow=none;endArrow=block;exitX=0.05;exitY=1.01;entryX=0;entryY=0.46;rounded=0;" edge="1" parent="1" source="nqEl2PhKfaH1SotiXYrJ-27" target="nqEl2PhKfaH1SotiXYrJ-54">
          <mxGeometry relative="1" as="geometry">
            <Array as="points">
              <mxPoint x="1496" y="2450" />
              <mxPoint x="1496" y="3564" />
            </Array>
          </mxGeometry>
        </mxCell>
        <mxCell id="nqEl2PhKfaH1SotiXYrJ-91" value="" style="curved=1;startArrow=none;endArrow=block;exitX=0.28;exitY=1.01;entryX=0.5;entryY=0;rounded=0;" edge="1" parent="1" source="nqEl2PhKfaH1SotiXYrJ-28" target="nqEl2PhKfaH1SotiXYrJ-29">
          <mxGeometry relative="1" as="geometry">
            <Array as="points">
              <mxPoint x="1670" y="2578" />
            </Array>
          </mxGeometry>
        </mxCell>
        <mxCell id="nqEl2PhKfaH1SotiXYrJ-92" value="" style="curved=1;startArrow=none;endArrow=block;exitX=0.69;exitY=1.01;entryX=0;entryY=0.45;rounded=0;" edge="1" parent="1" source="nqEl2PhKfaH1SotiXYrJ-28" target="nqEl2PhKfaH1SotiXYrJ-55">
          <mxGeometry relative="1" as="geometry">
            <Array as="points">
              <mxPoint x="1844" y="2578" />
              <mxPoint x="1844" y="2918" />
            </Array>
          </mxGeometry>
        </mxCell>
        <mxCell id="nqEl2PhKfaH1SotiXYrJ-93" value="Integral" style="curved=1;startArrow=none;endArrow=block;exitX=0.68;exitY=1;entryX=0;entryY=0.45;rounded=0;" edge="1" parent="1" source="nqEl2PhKfaH1SotiXYrJ-29" target="nqEl2PhKfaH1SotiXYrJ-55">
          <mxGeometry relative="1" as="geometry">
            <Array as="points">
              <mxPoint x="1732" y="2918" />
            </Array>
          </mxGeometry>
        </mxCell>
        <mxCell id="nqEl2PhKfaH1SotiXYrJ-94" value="" style="curved=1;startArrow=none;endArrow=block;exitX=0.27;exitY=1.01;entryX=1;entryY=0.35;rounded=0;" edge="1" parent="1" source="nqEl2PhKfaH1SotiXYrJ-55" target="nqEl2PhKfaH1SotiXYrJ-51">
          <mxGeometry relative="1" as="geometry">
            <Array as="points">
              <mxPoint x="3308" y="3090" />
            </Array>
          </mxGeometry>
        </mxCell>
        <mxCell id="nqEl2PhKfaH1SotiXYrJ-95" value="" style="curved=1;startArrow=none;endArrow=block;exitX=0.73;exitY=1.01;entryX=0.69;entryY=0;rounded=0;" edge="1" parent="1" source="nqEl2PhKfaH1SotiXYrJ-55" target="nqEl2PhKfaH1SotiXYrJ-54">
          <mxGeometry relative="1" as="geometry">
            <Array as="points">
              <mxPoint x="3451" y="3090" />
              <mxPoint x="3451" y="3564" />
            </Array>
          </mxGeometry>
        </mxCell>
        <mxCell id="nqEl2PhKfaH1SotiXYrJ-96" value="" style="curved=1;startArrow=none;endArrow=block;exitX=0.5;exitY=1.01;entryX=0.47;entryY=0;rounded=0;" edge="1" parent="1" source="nqEl2PhKfaH1SotiXYrJ-55" target="nqEl2PhKfaH1SotiXYrJ-54">
          <mxGeometry relative="1" as="geometry">
            <Array as="points">
              <mxPoint x="3379" y="3564" />
            </Array>
          </mxGeometry>
        </mxCell>
        <mxCell id="nqEl2PhKfaH1SotiXYrJ-97" value="Sinal" style="curved=1;startArrow=none;endArrow=block;exitX=0.31;exitY=1;entryX=0;entryY=0.46;rounded=0;" edge="1" parent="1" source="nqEl2PhKfaH1SotiXYrJ-29" target="nqEl2PhKfaH1SotiXYrJ-55">
          <mxGeometry relative="1" as="geometry">
            <Array as="points">
              <mxPoint x="1603" y="2918" />
            </Array>
          </mxGeometry>
        </mxCell>
        <mxCell id="nqEl2PhKfaH1SotiXYrJ-98" value="" style="curved=1;startArrow=none;endArrow=block;exitX=0;exitY=0.4;entryX=0.67;entryY=1;rounded=0;" edge="1" parent="1" source="nqEl2PhKfaH1SotiXYrJ-54" target="nqEl2PhKfaH1SotiXYrJ-51">
          <mxGeometry relative="1" as="geometry">
            <Array as="points">
              <mxPoint x="2659" y="3564" />
              <mxPoint x="2659" y="3218" />
            </Array>
          </mxGeometry>
        </mxCell>
        <mxCell id="nqEl2PhKfaH1SotiXYrJ-99" value="" style="curved=1;startArrow=none;endArrow=block;exitX=0.69;exitY=1;entryX=1;entryY=0.45;rounded=0;" edge="1" parent="1" source="nqEl2PhKfaH1SotiXYrJ-54" target="nqEl2PhKfaH1SotiXYrJ-32">
          <mxGeometry relative="1" as="geometry">
            <Array as="points">
              <mxPoint x="3451" y="3699" />
            </Array>
          </mxGeometry>
        </mxCell>
        <mxCell id="nqEl2PhKfaH1SotiXYrJ-100" value="" style="curved=1;startArrow=none;endArrow=block;exitX=0.33;exitY=1;entryX=0.99;entryY=0.46;rounded=0;" edge="1" parent="1" source="nqEl2PhKfaH1SotiXYrJ-51" target="nqEl2PhKfaH1SotiXYrJ-30">
          <mxGeometry relative="1" as="geometry">
            <Array as="points">
              <mxPoint x="2514" y="3218" />
            </Array>
          </mxGeometry>
        </mxCell>
        <mxCell id="nqEl2PhKfaH1SotiXYrJ-101" value="Nao" style="curved=1;startArrow=none;endArrow=block;exitX=0.5;exitY=0;entryX=0.69;entryY=1;rounded=0;" edge="1" parent="1" source="nqEl2PhKfaH1SotiXYrJ-30" target="nqEl2PhKfaH1SotiXYrJ-23">
          <mxGeometry relative="1" as="geometry">
            <Array as="points">
              <mxPoint x="1331" y="899" />
            </Array>
          </mxGeometry>
        </mxCell>
        <mxCell id="nqEl2PhKfaH1SotiXYrJ-102" value="Sim" style="curved=1;startArrow=none;endArrow=block;exitX=0.5;exitY=1;entryX=0.5;entryY=0.01;rounded=0;" edge="1" parent="1" source="nqEl2PhKfaH1SotiXYrJ-30" target="nqEl2PhKfaH1SotiXYrJ-31">
          <mxGeometry relative="1" as="geometry">
            <Array as="points" />
          </mxGeometry>
        </mxCell>
        <mxCell id="nqEl2PhKfaH1SotiXYrJ-103" value="" style="curved=1;startArrow=none;endArrow=block;exitX=0.5;exitY=1.01;entryX=0;entryY=0.47;rounded=0;" edge="1" parent="1" source="nqEl2PhKfaH1SotiXYrJ-31" target="nqEl2PhKfaH1SotiXYrJ-54">
          <mxGeometry relative="1" as="geometry">
            <Array as="points">
              <mxPoint x="1331" y="3564" />
            </Array>
          </mxGeometry>
        </mxCell>
        <mxCell id="nqEl2PhKfaH1SotiXYrJ-104" value="" style="curved=1;startArrow=none;endArrow=block;exitX=0.5;exitY=1;entryX=0;entryY=0.4;rounded=0;" edge="1" parent="1" source="nqEl2PhKfaH1SotiXYrJ-32" target="nqEl2PhKfaH1SotiXYrJ-52">
          <mxGeometry relative="1" as="geometry">
            <Array as="points">
              <mxPoint x="1433" y="3827" />
            </Array>
          </mxGeometry>
        </mxCell>
        <mxCell id="nqEl2PhKfaH1SotiXYrJ-105" value="" style="curved=1;startArrow=none;endArrow=block;exitX=1;exitY=0.45;entryX=0.27;entryY=1;rounded=0;" edge="1" parent="1" source="nqEl2PhKfaH1SotiXYrJ-32" target="nqEl2PhKfaH1SotiXYrJ-54">
          <mxGeometry relative="1" as="geometry">
            <Array as="points">
              <mxPoint x="3318" y="3699" />
            </Array>
          </mxGeometry>
        </mxCell>
        <mxCell id="nqEl2PhKfaH1SotiXYrJ-106" value="" style="curved=1;startArrow=none;endArrow=block;exitX=0.5;exitY=1.01;entryX=0.5;entryY=0;rounded=0;" edge="1" parent="1" source="nqEl2PhKfaH1SotiXYrJ-52" target="nqEl2PhKfaH1SotiXYrJ-33">
          <mxGeometry relative="1" as="geometry">
            <Array as="points">
              <mxPoint x="2587" y="3931" />
              <mxPoint x="1433" y="3956" />
            </Array>
          </mxGeometry>
        </mxCell>
        <mxCell id="nqEl2PhKfaH1SotiXYrJ-107" value="" style="curved=1;startArrow=none;endArrow=block;exitX=0.5;exitY=1;entryX=0.5;entryY=0;rounded=0;" edge="1" parent="1" source="nqEl2PhKfaH1SotiXYrJ-33" target="nqEl2PhKfaH1SotiXYrJ-56">
          <mxGeometry relative="1" as="geometry">
            <Array as="points">
              <mxPoint x="1433" y="4084" />
              <mxPoint x="3379" y="4109" />
            </Array>
          </mxGeometry>
        </mxCell>
        <mxCell id="nqEl2PhKfaH1SotiXYrJ-108" value="" style="curved=1;startArrow=none;endArrow=block;exitX=0.5;exitY=1.01;entryX=0.5;entryY=-0.01;rounded=0;" edge="1" parent="1" source="nqEl2PhKfaH1SotiXYrJ-56" target="nqEl2PhKfaH1SotiXYrJ-58">
          <mxGeometry relative="1" as="geometry">
            <Array as="points" />
          </mxGeometry>
        </mxCell>
        <mxCell id="nqEl2PhKfaH1SotiXYrJ-109" value="" style="curved=1;startArrow=none;endArrow=block;rounded=0;" edge="1" parent="1" source="nqEl2PhKfaH1SotiXYrJ-25" target="nqEl2PhKfaH1SotiXYrJ-19">
          <mxGeometry relative="1" as="geometry">
            <Array as="points" />
          </mxGeometry>
        </mxCell>
        <mxCell id="nqEl2PhKfaH1SotiXYrJ-110" value="" style="curved=1;startArrow=none;endArrow=block;rounded=0;" edge="1" parent="1" source="nqEl2PhKfaH1SotiXYrJ-19" target="nqEl2PhKfaH1SotiXYrJ-34">
          <mxGeometry relative="1" as="geometry">
            <Array as="points" />
          </mxGeometry>
        </mxCell>
      </root>
    </mxGraphModel>
  </diagram>
  <diagram id="P1YgfSNt3RxkLPYRJITH" name="Diagrama de processo">
    <mxGraphModel dx="5704" dy="3364" grid="1" gridSize="10" guides="1" tooltips="1" connect="1" arrows="1" fold="1" page="1" pageScale="1" pageWidth="827" pageHeight="1169" math="0" shadow="0">
      <root>
        <mxCell id="0" />
        <mxCell id="1" parent="0" />
        <mxCell id="H1SZmRDGkIQ40qrhDIBS-1" value="Inteligência Artificial" style="whiteSpace=wrap;strokeWidth=2;" vertex="1" parent="1">
          <mxGeometry x="2468" y="1971" width="602" height="315" as="geometry" />
        </mxCell>
        <mxCell id="H1SZmRDGkIQ40qrhDIBS-2" value="Sistema" style="whiteSpace=wrap;strokeWidth=2;" vertex="1" parent="1">
          <mxGeometry x="20" y="238" width="285" height="4166" as="geometry" />
        </mxCell>
        <mxCell id="H1SZmRDGkIQ40qrhDIBS-3" value="Fornecedor" style="whiteSpace=wrap;strokeWidth=2;" vertex="1" parent="1">
          <mxGeometry x="660" y="2592" width="264" height="1345" as="geometry" />
        </mxCell>
        <mxCell id="H1SZmRDGkIQ40qrhDIBS-4" value="Convidado" style="whiteSpace=wrap;strokeWidth=2;" vertex="1" parent="1">
          <mxGeometry x="325" y="916" width="938" height="390" as="geometry" />
        </mxCell>
        <mxCell id="H1SZmRDGkIQ40qrhDIBS-5" value="Organizador" style="whiteSpace=wrap;strokeWidth=2;strokeColor=light-dark(#6C8EBF,#0000FF);" vertex="1" parent="1">
          <mxGeometry x="1283" y="109" width="1164" height="3982" as="geometry" />
        </mxCell>
        <mxCell id="H1SZmRDGkIQ40qrhDIBS-6" value="Início" style="rounded=1;whiteSpace=wrap;arcSize=50;strokeWidth=2;" vertex="1" parent="1">
          <mxGeometry x="1376" y="20" width="64" height="39" as="geometry" />
        </mxCell>
        <mxCell id="H1SZmRDGkIQ40qrhDIBS-7" value="Login / Cadastro" style="whiteSpace=wrap;strokeWidth=2;" vertex="1" parent="1">
          <mxGeometry x="1318" y="134" width="179" height="54" as="geometry" />
        </mxCell>
        <mxCell id="H1SZmRDGkIQ40qrhDIBS-8" value="Criar ou Editar Evento - Tipo, Data, Hora, Local" style="whiteSpace=wrap;strokeWidth=2;" vertex="1" parent="1">
          <mxGeometry x="1477" y="396" width="260" height="78" as="geometry" />
        </mxCell>
        <mxCell id="H1SZmRDGkIQ40qrhDIBS-9" value="Configurar Espaço / Lista de Convidados" style="whiteSpace=wrap;strokeWidth=2;" vertex="1" parent="1">
          <mxGeometry x="1453" y="524" width="260" height="78" as="geometry" />
        </mxCell>
        <mxCell id="H1SZmRDGkIQ40qrhDIBS-10" value="Disparar Convites - WhatsApp / E-mail / Redes" style="whiteSpace=wrap;strokeWidth=2;" vertex="1" parent="1">
          <mxGeometry x="1453" y="654" width="260" height="78" as="geometry" />
        </mxCell>
        <mxCell id="H1SZmRDGkIQ40qrhDIBS-11" value="Gerir Orçamento - Categorias e Itens" style="whiteSpace=wrap;strokeWidth=2;" vertex="1" parent="1">
          <mxGeometry x="2153" y="1840" width="260" height="78" as="geometry" />
        </mxCell>
        <mxCell id="H1SZmRDGkIQ40qrhDIBS-12" value="Solicitar Sugestão de Fornecedores via IA" style="whiteSpace=wrap;strokeWidth=2;" vertex="1" parent="1">
          <mxGeometry x="1823" y="2336" width="260" height="78" as="geometry" />
        </mxCell>
        <mxCell id="H1SZmRDGkIQ40qrhDIBS-13" value="Selecionar Fornecedor entre Top 3 sugeridos" style="whiteSpace=wrap;strokeWidth=2;" vertex="1" parent="1">
          <mxGeometry x="1823" y="2464" width="260" height="78" as="geometry" />
        </mxCell>
        <mxCell id="H1SZmRDGkIQ40qrhDIBS-14" value="Negociar Fornecedor" style="whiteSpace=wrap;strokeWidth=2;" vertex="1" parent="1">
          <mxGeometry x="1678" y="2853" width="209" height="54" as="geometry" />
        </mxCell>
        <mxCell id="H1SZmRDGkIQ40qrhDIBS-15" value="Efetuar Pagamento / Registrar Cobrança" style="whiteSpace=wrap;strokeWidth=2;" vertex="1" parent="1">
          <mxGeometry x="1653" y="2957" width="260" height="78" as="geometry" />
        </mxCell>
        <mxCell id="H1SZmRDGkIQ40qrhDIBS-16" value="Pagamento Integral ou Sinal?" style="rhombus;strokeWidth=2;whiteSpace=wrap;" vertex="1" parent="1">
          <mxGeometry x="1557" y="3085" width="278" height="278" as="geometry" />
        </mxCell>
        <mxCell id="H1SZmRDGkIQ40qrhDIBS-17" value="Checklist e Gamificação das Tarefas" style="whiteSpace=wrap;strokeWidth=2;" vertex="1" parent="1">
          <mxGeometry x="2012" y="1709" width="260" height="78" as="geometry" />
        </mxCell>
        <mxCell id="H1SZmRDGkIQ40qrhDIBS-18" value="Tudo pronto?" style="rhombus;strokeWidth=2;whiteSpace=wrap;" vertex="1" parent="1">
          <mxGeometry x="2069" y="1490" width="146" height="146" as="geometry" />
        </mxCell>
        <mxCell id="H1SZmRDGkIQ40qrhDIBS-19" value="Pré-Evento - Confirmações finais" style="whiteSpace=wrap;strokeWidth=2;" vertex="1" parent="1">
          <mxGeometry x="2153" y="3700" width="260" height="78" as="geometry" />
        </mxCell>
        <mxCell id="H1SZmRDGkIQ40qrhDIBS-20" value="Pós-Evento - Avaliações e Relatórios" style="whiteSpace=wrap;strokeWidth=2;" vertex="1" parent="1">
          <mxGeometry x="1741" y="3988" width="260" height="78" as="geometry" />
        </mxCell>
        <mxCell id="H1SZmRDGkIQ40qrhDIBS-21" value="Recebe Convite" style="whiteSpace=wrap;strokeWidth=2;" vertex="1" parent="1">
          <mxGeometry x="552" y="941" width="171" height="54" as="geometry" />
        </mxCell>
        <mxCell id="H1SZmRDGkIQ40qrhDIBS-22" value="Acessa Espaço dos Convidados" style="whiteSpace=wrap;strokeWidth=2;" vertex="1" parent="1">
          <mxGeometry x="507" y="1068" width="260" height="78" as="geometry" />
        </mxCell>
        <mxCell id="H1SZmRDGkIQ40qrhDIBS-23" value="Confirma Presença - RSVP" style="whiteSpace=wrap;strokeWidth=2;" vertex="1" parent="1">
          <mxGeometry x="364" y="1212" width="244" height="54" as="geometry" />
        </mxCell>
        <mxCell id="H1SZmRDGkIQ40qrhDIBS-24" value="Consulta Info - Data, Local, Presentes" style="whiteSpace=wrap;strokeWidth=2;" vertex="1" parent="1">
          <mxGeometry x="658" y="1200" width="260" height="78" as="geometry" />
        </mxCell>
        <mxCell id="H1SZmRDGkIQ40qrhDIBS-25" value="Espaço Interativo - Playlist, Fotos, Wishlist" style="whiteSpace=wrap;strokeWidth=2;" vertex="1" parent="1">
          <mxGeometry x="968" y="1200" width="260" height="78" as="geometry" />
        </mxCell>
        <mxCell id="H1SZmRDGkIQ40qrhDIBS-26" value="Recebe Solicitação" style="whiteSpace=wrap;strokeWidth=2;" vertex="1" parent="1">
          <mxGeometry x="695" y="2631" width="194" height="54" as="geometry" />
        </mxCell>
        <mxCell id="H1SZmRDGkIQ40qrhDIBS-27" value="Envia Proposta" style="whiteSpace=wrap;strokeWidth=2;" vertex="1" parent="1">
          <mxGeometry x="710" y="2749" width="165" height="54" as="geometry" />
        </mxCell>
        <mxCell id="H1SZmRDGkIQ40qrhDIBS-28" value="Confirma Reserva" style="whiteSpace=wrap;strokeWidth=2;" vertex="1" parent="1">
          <mxGeometry x="700" y="3596" width="185" height="54" as="geometry" />
        </mxCell>
        <mxCell id="H1SZmRDGkIQ40qrhDIBS-29" value="Executa Serviço" style="whiteSpace=wrap;strokeWidth=2;" vertex="1" parent="1">
          <mxGeometry x="706" y="3843" width="173" height="54" as="geometry" />
        </mxCell>
        <mxCell id="H1SZmRDGkIQ40qrhDIBS-30" value="Autenticação e Sessão" style="shape=cylinder3;boundedLbl=1;backgroundOutline=1;size=10;strokeWidth=2;whiteSpace=wrap;" vertex="1" parent="1">
          <mxGeometry x="76" y="263" width="174" height="83" as="geometry" />
        </mxCell>
        <mxCell id="H1SZmRDGkIQ40qrhDIBS-31" value="Persistência de Dados" style="shape=cylinder3;boundedLbl=1;backgroundOutline=1;size=10;strokeWidth=2;whiteSpace=wrap;" vertex="1" parent="1">
          <mxGeometry x="78" y="652" width="170" height="82" as="geometry" />
        </mxCell>
        <mxCell id="H1SZmRDGkIQ40qrhDIBS-32" value="Gerar Link do Convite" style="shape=cylinder3;boundedLbl=1;backgroundOutline=1;size=10;strokeWidth=2;whiteSpace=wrap;" vertex="1" parent="1">
          <mxGeometry x="77" y="784" width="171" height="82" as="geometry" />
        </mxCell>
        <mxCell id="H1SZmRDGkIQ40qrhDIBS-33" value="Página Pública do Evento" style="shape=cylinder3;boundedLbl=1;backgroundOutline=1;size=10;strokeWidth=2;whiteSpace=wrap;" vertex="1" parent="1">
          <mxGeometry x="65" y="1196" width="195" height="85" as="geometry" />
        </mxCell>
        <mxCell id="H1SZmRDGkIQ40qrhDIBS-34" value="Coletar RSVP e Atualizar" style="shape=cylinder3;boundedLbl=1;backgroundOutline=1;size=10;strokeWidth=2;whiteSpace=wrap;" vertex="1" parent="1">
          <mxGeometry x="68" y="1356" width="189" height="84" as="geometry" />
        </mxCell>
        <mxCell id="H1SZmRDGkIQ40qrhDIBS-35" value="Controle Financeiro - Orçamento e Pagamentos" style="shape=cylinder3;boundedLbl=1;backgroundOutline=1;size=10;strokeWidth=2;whiteSpace=wrap;fillColor=#dae8fc;strokeColor=light-dark(#6c8ebf, #0769f2);fontColor=#000000;labelBackgroundColor=none;fontStyle=1" vertex="1" parent="1">
          <mxGeometry x="55" y="3436" width="215" height="110" as="geometry" />
        </mxCell>
        <mxCell id="H1SZmRDGkIQ40qrhDIBS-36" value="Notificações e Lembretes" style="shape=cylinder3;boundedLbl=1;backgroundOutline=1;size=10;strokeWidth=2;whiteSpace=wrap;" vertex="1" parent="1">
          <mxGeometry x="59" y="3828" width="197" height="85" as="geometry" />
        </mxCell>
        <mxCell id="H1SZmRDGkIQ40qrhDIBS-37" value="Tutoriais por Módulo" style="shape=cylinder3;boundedLbl=1;backgroundOutline=1;size=10;strokeWidth=2;whiteSpace=wrap;" vertex="1" parent="1">
          <mxGeometry x="82" y="2617" width="160" height="81" as="geometry" />
        </mxCell>
        <mxCell id="H1SZmRDGkIQ40qrhDIBS-38" value="Relatórios / KPIs" style="shape=cylinder3;boundedLbl=1;backgroundOutline=1;size=10;strokeWidth=2;whiteSpace=wrap;" vertex="1" parent="1">
          <mxGeometry x="96" y="4141" width="133" height="78" as="geometry" />
        </mxCell>
        <mxCell id="H1SZmRDGkIQ40qrhDIBS-39" value="Relatórios Inteligentes e Dashboards" style="shape=cylinder3;boundedLbl=1;backgroundOutline=1;size=10;strokeWidth=2;whiteSpace=wrap;fillColor=#ffe6cc;strokeColor=#d79b00;fontColor=#000000;" vertex="1" parent="1">
          <mxGeometry x="55" y="4269" width="215" height="110" as="geometry" />
        </mxCell>
        <mxCell id="H1SZmRDGkIQ40qrhDIBS-40" value="Gamificação do Checklist" style="shape=cylinder3;boundedLbl=1;backgroundOutline=1;size=10;strokeWidth=2;whiteSpace=wrap;" vertex="1" parent="1">
          <mxGeometry x="64" y="1837" width="196" height="85" as="geometry" />
        </mxCell>
        <mxCell id="H1SZmRDGkIQ40qrhDIBS-41" value="Analisar Categorias e Itens" style="shape=hexagon;perimeter=hexagonPerimeter2;fixedSize=1;strokeWidth=2;whiteSpace=wrap;" vertex="1" parent="1">
          <mxGeometry x="2514" y="2008" width="225" height="39" as="geometry" />
        </mxCell>
        <mxCell id="H1SZmRDGkIQ40qrhDIBS-42" value="Buscar Cotações" style="shape=hexagon;perimeter=hexagonPerimeter2;fixedSize=1;strokeWidth=2;whiteSpace=wrap;" vertex="1" parent="1">
          <mxGeometry x="2551" y="2109" width="151" height="39" as="geometry" />
        </mxCell>
        <mxCell id="H1SZmRDGkIQ40qrhDIBS-43" value="Selecionar Top 3 Fornecedores" style="shape=hexagon;perimeter=hexagonPerimeter2;fixedSize=1;strokeWidth=2;whiteSpace=wrap;" vertex="1" parent="1">
          <mxGeometry x="2503" y="2198" width="247" height="63" as="geometry" />
        </mxCell>
        <mxCell id="H1SZmRDGkIQ40qrhDIBS-44" value="Assistente Proativo - Plano Completo do Evento" style="shape=hexagon;perimeter=hexagonPerimeter2;fixedSize=1;strokeWidth=2;whiteSpace=wrap;" vertex="1" parent="1">
          <mxGeometry x="2788" y="1996" width="247" height="63" as="geometry" />
        </mxCell>
        <mxCell id="H1SZmRDGkIQ40qrhDIBS-45" value="Fim" style="rounded=1;whiteSpace=wrap;arcSize=50;strokeWidth=2;" vertex="1" parent="1">
          <mxGeometry x="137" y="4454" width="51" height="39" as="geometry" />
        </mxCell>
        <mxCell id="H1SZmRDGkIQ40qrhDIBS-46" value="" style="curved=1;startArrow=none;endArrow=block;exitX=0.5;exitY=1;entryX=0.5;entryY=0;rounded=0;" edge="1" parent="1" source="H1SZmRDGkIQ40qrhDIBS-6" target="H1SZmRDGkIQ40qrhDIBS-7">
          <mxGeometry relative="1" as="geometry">
            <Array as="points" />
          </mxGeometry>
        </mxCell>
        <mxCell id="H1SZmRDGkIQ40qrhDIBS-47" value="" style="curved=1;startArrow=none;endArrow=block;exitX=0.35;exitY=1;entryX=1;entryY=0.44;rounded=0;" edge="1" parent="1" source="H1SZmRDGkIQ40qrhDIBS-7" target="H1SZmRDGkIQ40qrhDIBS-30">
          <mxGeometry relative="1" as="geometry">
            <Array as="points">
              <mxPoint x="1356" y="213" />
              <mxPoint x="1356" y="238" />
            </Array>
          </mxGeometry>
        </mxCell>
        <mxCell id="H1SZmRDGkIQ40qrhDIBS-48" value="" style="curved=1;startArrow=none;endArrow=block;exitX=0.5;exitY=1;entryX=0;entryY=0.42;rounded=0;" edge="1" parent="1" source="H1SZmRDGkIQ40qrhDIBS-30" target="H1SZmRDGkIQ40qrhDIBS-8">
          <mxGeometry relative="1" as="geometry">
            <Array as="points">
              <mxPoint x="163" y="371" />
            </Array>
          </mxGeometry>
        </mxCell>
        <mxCell id="H1SZmRDGkIQ40qrhDIBS-49" value="" style="curved=1;startArrow=none;endArrow=block;exitX=0;exitY=0.9;entryX=1;entryY=0.44;rounded=0;" edge="1" parent="1" source="H1SZmRDGkIQ40qrhDIBS-8" target="H1SZmRDGkIQ40qrhDIBS-31">
          <mxGeometry relative="1" as="geometry">
            <Array as="points">
              <mxPoint x="1346" y="499" />
              <mxPoint x="1346" y="627" />
            </Array>
          </mxGeometry>
        </mxCell>
        <mxCell id="H1SZmRDGkIQ40qrhDIBS-50" value="" style="curved=1;startArrow=none;endArrow=block;exitX=0.44;exitY=1;entryX=0.5;entryY=0;rounded=0;" edge="1" parent="1" source="H1SZmRDGkIQ40qrhDIBS-8" target="H1SZmRDGkIQ40qrhDIBS-9">
          <mxGeometry relative="1" as="geometry">
            <Array as="points">
              <mxPoint x="1583" y="499" />
            </Array>
          </mxGeometry>
        </mxCell>
        <mxCell id="H1SZmRDGkIQ40qrhDIBS-51" value="" style="curved=1;startArrow=none;endArrow=block;exitX=0;exitY=0.99;entryX=1;entryY=0.44;rounded=0;" edge="1" parent="1" source="H1SZmRDGkIQ40qrhDIBS-9" target="H1SZmRDGkIQ40qrhDIBS-31">
          <mxGeometry relative="1" as="geometry">
            <Array as="points">
              <mxPoint x="1366" y="627" />
            </Array>
          </mxGeometry>
        </mxCell>
        <mxCell id="H1SZmRDGkIQ40qrhDIBS-52" value="" style="curved=1;startArrow=none;endArrow=block;exitX=0.5;exitY=1;entryX=0.5;entryY=0;rounded=0;" edge="1" parent="1" source="H1SZmRDGkIQ40qrhDIBS-9" target="H1SZmRDGkIQ40qrhDIBS-10">
          <mxGeometry relative="1" as="geometry">
            <Array as="points" />
          </mxGeometry>
        </mxCell>
        <mxCell id="H1SZmRDGkIQ40qrhDIBS-53" value="" style="curved=1;startArrow=none;endArrow=block;exitX=0.5;exitY=1;entryX=1;entryY=0.45;rounded=0;" edge="1" parent="1" source="H1SZmRDGkIQ40qrhDIBS-10" target="H1SZmRDGkIQ40qrhDIBS-32">
          <mxGeometry relative="1" as="geometry">
            <Array as="points">
              <mxPoint x="1583" y="759" />
            </Array>
          </mxGeometry>
        </mxCell>
        <mxCell id="H1SZmRDGkIQ40qrhDIBS-54" value="" style="curved=1;startArrow=none;endArrow=block;exitX=0.5;exitY=1;entryX=0;entryY=0.33;rounded=0;" edge="1" parent="1" source="H1SZmRDGkIQ40qrhDIBS-32" target="H1SZmRDGkIQ40qrhDIBS-21">
          <mxGeometry relative="1" as="geometry">
            <Array as="points">
              <mxPoint x="163" y="916" />
            </Array>
          </mxGeometry>
        </mxCell>
        <mxCell id="H1SZmRDGkIQ40qrhDIBS-55" value="" style="curved=1;startArrow=none;endArrow=block;exitX=0.5;exitY=1;entryX=0.5;entryY=0;rounded=0;" edge="1" parent="1" source="H1SZmRDGkIQ40qrhDIBS-21" target="H1SZmRDGkIQ40qrhDIBS-22">
          <mxGeometry relative="1" as="geometry">
            <Array as="points" />
          </mxGeometry>
        </mxCell>
        <mxCell id="H1SZmRDGkIQ40qrhDIBS-56" value="" style="curved=1;startArrow=none;endArrow=block;exitX=0;exitY=0.97;entryX=1;entryY=0.19;rounded=0;" edge="1" parent="1" source="H1SZmRDGkIQ40qrhDIBS-22" target="H1SZmRDGkIQ40qrhDIBS-33">
          <mxGeometry relative="1" as="geometry">
            <Array as="points">
              <mxPoint x="408" y="1171" />
            </Array>
          </mxGeometry>
        </mxCell>
        <mxCell id="H1SZmRDGkIQ40qrhDIBS-57" value="" style="curved=1;startArrow=none;endArrow=block;exitX=0.15;exitY=1;entryX=0.5;entryY=-0.01;rounded=0;" edge="1" parent="1" source="H1SZmRDGkIQ40qrhDIBS-22" target="H1SZmRDGkIQ40qrhDIBS-23">
          <mxGeometry relative="1" as="geometry">
            <Array as="points">
              <mxPoint x="486" y="1171" />
            </Array>
          </mxGeometry>
        </mxCell>
        <mxCell id="H1SZmRDGkIQ40qrhDIBS-58" value="" style="curved=1;startArrow=none;endArrow=block;exitX=0.5;exitY=0.99;entryX=0.5;entryY=0;rounded=0;" edge="1" parent="1" source="H1SZmRDGkIQ40qrhDIBS-23" target="H1SZmRDGkIQ40qrhDIBS-34">
          <mxGeometry relative="1" as="geometry">
            <Array as="points">
              <mxPoint x="486" y="1306" />
              <mxPoint x="163" y="1331" />
            </Array>
          </mxGeometry>
        </mxCell>
        <mxCell id="H1SZmRDGkIQ40qrhDIBS-59" value="" style="curved=1;startArrow=none;endArrow=block;exitX=0.85;exitY=1;entryX=0.5;entryY=-0.01;rounded=0;" edge="1" parent="1" source="H1SZmRDGkIQ40qrhDIBS-22" target="H1SZmRDGkIQ40qrhDIBS-24">
          <mxGeometry relative="1" as="geometry">
            <Array as="points">
              <mxPoint x="788" y="1171" />
            </Array>
          </mxGeometry>
        </mxCell>
        <mxCell id="H1SZmRDGkIQ40qrhDIBS-60" value="" style="curved=1;startArrow=none;endArrow=block;exitX=1;exitY=0.73;entryX=0.5;entryY=-0.01;rounded=0;" edge="1" parent="1" source="H1SZmRDGkIQ40qrhDIBS-22" target="H1SZmRDGkIQ40qrhDIBS-25">
          <mxGeometry relative="1" as="geometry">
            <Array as="points">
              <mxPoint x="1098" y="1171" />
            </Array>
          </mxGeometry>
        </mxCell>
        <mxCell id="H1SZmRDGkIQ40qrhDIBS-61" value="" style="curved=1;startArrow=none;endArrow=block;exitX=0.5;exitY=1;entryX=0;entryY=0.47;rounded=0;" edge="1" parent="1" source="H1SZmRDGkIQ40qrhDIBS-34" target="H1SZmRDGkIQ40qrhDIBS-18">
          <mxGeometry relative="1" as="geometry">
            <Array as="points">
              <mxPoint x="163" y="1465" />
            </Array>
          </mxGeometry>
        </mxCell>
        <mxCell id="H1SZmRDGkIQ40qrhDIBS-62" value="Não" style="curved=1;startArrow=none;endArrow=block;exitX=0.5;exitY=0;entryX=1;entryY=0.69;rounded=0;" edge="1" parent="1" source="H1SZmRDGkIQ40qrhDIBS-18" target="H1SZmRDGkIQ40qrhDIBS-9">
          <mxGeometry relative="1" as="geometry">
            <Array as="points">
              <mxPoint x="2142" y="627" />
            </Array>
          </mxGeometry>
        </mxCell>
        <mxCell id="H1SZmRDGkIQ40qrhDIBS-63" value="Sim" style="curved=1;startArrow=none;endArrow=block;exitX=0.5;exitY=1;entryX=0.5;entryY=0;rounded=0;" edge="1" parent="1" source="H1SZmRDGkIQ40qrhDIBS-18" target="H1SZmRDGkIQ40qrhDIBS-17">
          <mxGeometry relative="1" as="geometry">
            <Array as="points" />
          </mxGeometry>
        </mxCell>
        <mxCell id="H1SZmRDGkIQ40qrhDIBS-64" value="" style="curved=1;startArrow=none;endArrow=block;exitX=0;exitY=0.67;entryX=1;entryY=0.44;rounded=0;" edge="1" parent="1" source="H1SZmRDGkIQ40qrhDIBS-17" target="H1SZmRDGkIQ40qrhDIBS-40">
          <mxGeometry relative="1" as="geometry">
            <Array as="points">
              <mxPoint x="1521" y="1812" />
            </Array>
          </mxGeometry>
        </mxCell>
        <mxCell id="H1SZmRDGkIQ40qrhDIBS-65" value="" style="curved=1;startArrow=none;endArrow=block;exitX=0.83;exitY=1;entryX=0.5;entryY=0;rounded=0;" edge="1" parent="1" source="H1SZmRDGkIQ40qrhDIBS-17" target="H1SZmRDGkIQ40qrhDIBS-11">
          <mxGeometry relative="1" as="geometry">
            <Array as="points">
              <mxPoint x="2283" y="1812" />
            </Array>
          </mxGeometry>
        </mxCell>
        <mxCell id="H1SZmRDGkIQ40qrhDIBS-66" value="" style="curved=1;startArrow=none;endArrow=block;exitX=0.5;exitY=1;entryX=0;entryY=0.04;rounded=0;" edge="1" parent="1" source="H1SZmRDGkIQ40qrhDIBS-11" target="H1SZmRDGkIQ40qrhDIBS-41">
          <mxGeometry relative="1" as="geometry">
            <Array as="points">
              <mxPoint x="2283" y="1971" />
            </Array>
          </mxGeometry>
        </mxCell>
        <mxCell id="H1SZmRDGkIQ40qrhDIBS-67" value="" style="curved=1;startArrow=none;endArrow=block;exitX=0.5;exitY=1.01;entryX=0.5;entryY=0.01;rounded=0;" edge="1" parent="1" source="H1SZmRDGkIQ40qrhDIBS-41" target="H1SZmRDGkIQ40qrhDIBS-42">
          <mxGeometry relative="1" as="geometry">
            <Array as="points" />
          </mxGeometry>
        </mxCell>
        <mxCell id="H1SZmRDGkIQ40qrhDIBS-68" value="" style="curved=1;startArrow=none;endArrow=block;exitX=0.5;exitY=1.01;entryX=0.5;entryY=0.01;rounded=0;" edge="1" parent="1" source="H1SZmRDGkIQ40qrhDIBS-42" target="H1SZmRDGkIQ40qrhDIBS-43">
          <mxGeometry relative="1" as="geometry">
            <Array as="points" />
          </mxGeometry>
        </mxCell>
        <mxCell id="H1SZmRDGkIQ40qrhDIBS-69" value="" style="curved=1;startArrow=none;endArrow=block;exitX=0.5;exitY=1.01;entryX=0.5;entryY=0.01;rounded=0;" edge="1" parent="1" source="H1SZmRDGkIQ40qrhDIBS-43" target="H1SZmRDGkIQ40qrhDIBS-12">
          <mxGeometry relative="1" as="geometry">
            <Array as="points">
              <mxPoint x="2626" y="2286" />
              <mxPoint x="1953" y="2311" />
            </Array>
          </mxGeometry>
        </mxCell>
        <mxCell id="H1SZmRDGkIQ40qrhDIBS-70" value="" style="curved=1;startArrow=none;endArrow=block;exitX=0.68;exitY=1;entryX=0;entryY=0.3;rounded=0;" edge="1" parent="1" source="H1SZmRDGkIQ40qrhDIBS-11" target="H1SZmRDGkIQ40qrhDIBS-44">
          <mxGeometry relative="1" as="geometry">
            <Array as="points">
              <mxPoint x="2365" y="1946" />
              <mxPoint x="2365" y="1971" />
            </Array>
          </mxGeometry>
        </mxCell>
        <mxCell id="H1SZmRDGkIQ40qrhDIBS-71" value="" style="curved=1;startArrow=none;endArrow=block;exitX=0.5;exitY=1.01;entryX=0.5;entryY=0.01;rounded=0;" edge="1" parent="1" source="H1SZmRDGkIQ40qrhDIBS-12" target="H1SZmRDGkIQ40qrhDIBS-13">
          <mxGeometry relative="1" as="geometry">
            <Array as="points" />
          </mxGeometry>
        </mxCell>
        <mxCell id="H1SZmRDGkIQ40qrhDIBS-72" value="" style="curved=1;startArrow=none;endArrow=block;exitX=0.67;exitY=1.01;entryX=1;entryY=0.4;rounded=0;" edge="1" parent="1" source="H1SZmRDGkIQ40qrhDIBS-13" target="H1SZmRDGkIQ40qrhDIBS-26">
          <mxGeometry relative="1" as="geometry">
            <Array as="points">
              <mxPoint x="2025" y="2567" />
              <mxPoint x="2025" y="2592" />
            </Array>
          </mxGeometry>
        </mxCell>
        <mxCell id="H1SZmRDGkIQ40qrhDIBS-73" value="" style="curved=1;startArrow=none;endArrow=block;exitX=0.5;exitY=1;entryX=0.5;entryY=-0.01;rounded=0;" edge="1" parent="1" source="H1SZmRDGkIQ40qrhDIBS-26" target="H1SZmRDGkIQ40qrhDIBS-27">
          <mxGeometry relative="1" as="geometry">
            <Array as="points" />
          </mxGeometry>
        </mxCell>
        <mxCell id="H1SZmRDGkIQ40qrhDIBS-74" value="" style="curved=1;startArrow=none;endArrow=block;exitX=0.5;exitY=0.99;entryX=0;entryY=0.39;rounded=0;" edge="1" parent="1" source="H1SZmRDGkIQ40qrhDIBS-27" target="H1SZmRDGkIQ40qrhDIBS-14">
          <mxGeometry relative="1" as="geometry">
            <Array as="points">
              <mxPoint x="792" y="2828" />
            </Array>
          </mxGeometry>
        </mxCell>
        <mxCell id="H1SZmRDGkIQ40qrhDIBS-75" value="" style="curved=1;startArrow=none;endArrow=block;exitX=0.5;exitY=0.99;entryX=0.5;entryY=-0.01;rounded=0;" edge="1" parent="1" source="H1SZmRDGkIQ40qrhDIBS-14" target="H1SZmRDGkIQ40qrhDIBS-15">
          <mxGeometry relative="1" as="geometry">
            <Array as="points" />
          </mxGeometry>
        </mxCell>
        <mxCell id="H1SZmRDGkIQ40qrhDIBS-76" value="" style="curved=1;startArrow=none;endArrow=block;exitX=0.29;exitY=0.99;entryX=0.5;entryY=0;rounded=0;" edge="1" parent="1" source="H1SZmRDGkIQ40qrhDIBS-15" target="H1SZmRDGkIQ40qrhDIBS-16">
          <mxGeometry relative="1" as="geometry">
            <Array as="points">
              <mxPoint x="1696" y="3060" />
            </Array>
          </mxGeometry>
        </mxCell>
        <mxCell id="H1SZmRDGkIQ40qrhDIBS-77" value="Integral" style="curved=1;startArrow=none;endArrow=block;exitX=0.32;exitY=1;entryX=1;entryY=0.44;rounded=0;" edge="1" parent="1" source="H1SZmRDGkIQ40qrhDIBS-16" target="H1SZmRDGkIQ40qrhDIBS-35">
          <mxGeometry relative="1" as="geometry">
            <Array as="points">
              <mxPoint x="1633" y="3399" />
            </Array>
          </mxGeometry>
        </mxCell>
        <mxCell id="H1SZmRDGkIQ40qrhDIBS-78" value="" style="curved=1;startArrow=none;endArrow=block;exitX=0.7;exitY=1;entryX=0;entryY=0.34;rounded=0;" edge="1" parent="1" source="H1SZmRDGkIQ40qrhDIBS-35" target="H1SZmRDGkIQ40qrhDIBS-28">
          <mxGeometry relative="1" as="geometry">
            <Array as="points">
              <mxPoint x="224" y="3571" />
            </Array>
          </mxGeometry>
        </mxCell>
        <mxCell id="H1SZmRDGkIQ40qrhDIBS-79" value="Sinal" style="curved=1;startArrow=none;endArrow=block;exitX=0.69;exitY=1;entryX=1;entryY=0.44;rounded=0;" edge="1" parent="1" source="H1SZmRDGkIQ40qrhDIBS-16" target="H1SZmRDGkIQ40qrhDIBS-35">
          <mxGeometry relative="1" as="geometry">
            <Array as="points">
              <mxPoint x="1763" y="3399" />
            </Array>
          </mxGeometry>
        </mxCell>
        <mxCell id="H1SZmRDGkIQ40qrhDIBS-80" value="" style="curved=1;startArrow=none;endArrow=block;exitX=0.47;exitY=1;entryX=0.49;entryY=0;rounded=0;" edge="1" parent="1" source="H1SZmRDGkIQ40qrhDIBS-35" target="H1SZmRDGkIQ40qrhDIBS-36">
          <mxGeometry relative="1" as="geometry">
            <Array as="points">
              <mxPoint x="153" y="3571" />
              <mxPoint x="153" y="3803" />
            </Array>
          </mxGeometry>
        </mxCell>
        <mxCell id="H1SZmRDGkIQ40qrhDIBS-81" value="" style="curved=1;startArrow=none;endArrow=block;exitX=1;exitY=0.36;entryX=0.35;entryY=1;rounded=0;" edge="1" parent="1" source="H1SZmRDGkIQ40qrhDIBS-36" target="H1SZmRDGkIQ40qrhDIBS-28">
          <mxGeometry relative="1" as="geometry">
            <Array as="points">
              <mxPoint x="738" y="3803" />
              <mxPoint x="738" y="3675" />
            </Array>
          </mxGeometry>
        </mxCell>
        <mxCell id="H1SZmRDGkIQ40qrhDIBS-82" value="" style="curved=1;startArrow=none;endArrow=block;exitX=0.65;exitY=1;entryX=0;entryY=0.43;rounded=0;" edge="1" parent="1" source="H1SZmRDGkIQ40qrhDIBS-28" target="H1SZmRDGkIQ40qrhDIBS-19">
          <mxGeometry relative="1" as="geometry">
            <Array as="points">
              <mxPoint x="846" y="3675" />
            </Array>
          </mxGeometry>
        </mxCell>
        <mxCell id="H1SZmRDGkIQ40qrhDIBS-83" value="" style="curved=1;startArrow=none;endArrow=block;exitX=0.67;exitY=1;entryX=1;entryY=0.44;rounded=0;" edge="1" parent="1" source="H1SZmRDGkIQ40qrhDIBS-19" target="H1SZmRDGkIQ40qrhDIBS-29">
          <mxGeometry relative="1" as="geometry">
            <Array as="points">
              <mxPoint x="2355" y="3803" />
            </Array>
          </mxGeometry>
        </mxCell>
        <mxCell id="H1SZmRDGkIQ40qrhDIBS-84" value="" style="curved=1;startArrow=none;endArrow=block;exitX=0.5;exitY=1.01;entryX=0.5;entryY=0;rounded=0;" edge="1" parent="1" source="H1SZmRDGkIQ40qrhDIBS-29" target="H1SZmRDGkIQ40qrhDIBS-20">
          <mxGeometry relative="1" as="geometry">
            <Array as="points">
              <mxPoint x="792" y="3938" />
              <mxPoint x="1871" y="3963" />
            </Array>
          </mxGeometry>
        </mxCell>
        <mxCell id="H1SZmRDGkIQ40qrhDIBS-85" value="" style="curved=1;startArrow=none;endArrow=block;exitX=0.5;exitY=1;entryX=0.5;entryY=0;rounded=0;" edge="1" parent="1" source="H1SZmRDGkIQ40qrhDIBS-20" target="H1SZmRDGkIQ40qrhDIBS-38">
          <mxGeometry relative="1" as="geometry">
            <Array as="points">
              <mxPoint x="1871" y="4091" />
              <mxPoint x="163" y="4116" />
            </Array>
          </mxGeometry>
        </mxCell>
        <mxCell id="H1SZmRDGkIQ40qrhDIBS-86" value="" style="curved=1;startArrow=none;endArrow=block;exitX=0.5;exitY=0.99;entryX=0.5;entryY=0;rounded=0;" edge="1" parent="1" source="H1SZmRDGkIQ40qrhDIBS-38" target="H1SZmRDGkIQ40qrhDIBS-39">
          <mxGeometry relative="1" as="geometry">
            <Array as="points" />
          </mxGeometry>
        </mxCell>
        <mxCell id="H1SZmRDGkIQ40qrhDIBS-87" value="" style="curved=1;startArrow=none;endArrow=block;exitX=0.5;exitY=1;entryX=0.5;entryY=0;rounded=0;" edge="1" parent="1" source="H1SZmRDGkIQ40qrhDIBS-39" target="H1SZmRDGkIQ40qrhDIBS-45">
          <mxGeometry relative="1" as="geometry">
            <Array as="points" />
          </mxGeometry>
        </mxCell>
        <mxCell id="H1SZmRDGkIQ40qrhDIBS-88" value="" style="curved=1;startArrow=none;endArrow=block;exitX=0.53;exitY=1;entryX=1;entryY=0.44;rounded=0;" edge="1" parent="1" source="H1SZmRDGkIQ40qrhDIBS-7" target="H1SZmRDGkIQ40qrhDIBS-31">
          <mxGeometry relative="1" as="geometry">
            <Array as="points">
              <mxPoint x="1418" y="213" />
              <mxPoint x="1418" y="627" />
            </Array>
          </mxGeometry>
        </mxCell>
        <mxCell id="H1SZmRDGkIQ40qrhDIBS-89" value="" style="curved=1;startArrow=none;endArrow=block;exitX=0.83;exitY=1;entryX=1;entryY=0.47;rounded=0;" edge="1" parent="1" source="H1SZmRDGkIQ40qrhDIBS-8" target="H1SZmRDGkIQ40qrhDIBS-37">
          <mxGeometry relative="1" as="geometry">
            <Array as="points">
              <mxPoint x="1748" y="499" />
              <mxPoint x="1748" y="2592" />
            </Array>
          </mxGeometry>
        </mxCell>
        <mxCell id="H1SZmRDGkIQ40qrhDIBS-90" value="" style="curved=1;startArrow=none;endArrow=block;exitX=0.93;exitY=1;entryX=1;entryY=0.47;rounded=0;" edge="1" parent="1" source="H1SZmRDGkIQ40qrhDIBS-9" target="H1SZmRDGkIQ40qrhDIBS-37">
          <mxGeometry relative="1" as="geometry">
            <Array as="points">
              <mxPoint x="1768" y="627" />
              <mxPoint x="1768" y="2592" />
            </Array>
          </mxGeometry>
        </mxCell>
        <mxCell id="H1SZmRDGkIQ40qrhDIBS-91" value="" style="curved=1;startArrow=none;endArrow=block;exitX=0;exitY=0.73;entryX=1;entryY=0.47;rounded=0;" edge="1" parent="1" source="H1SZmRDGkIQ40qrhDIBS-11" target="H1SZmRDGkIQ40qrhDIBS-37">
          <mxGeometry relative="1" as="geometry">
            <Array as="points">
              <mxPoint x="1788" y="1946" />
              <mxPoint x="1788" y="2592" />
            </Array>
          </mxGeometry>
        </mxCell>
        <mxCell id="H1SZmRDGkIQ40qrhDIBS-92" value="" style="curved=1;startArrow=none;endArrow=block;exitX=0.33;exitY=1.01;entryX=1;entryY=0.47;rounded=0;" edge="1" parent="1" source="H1SZmRDGkIQ40qrhDIBS-13" target="H1SZmRDGkIQ40qrhDIBS-37">
          <mxGeometry relative="1" as="geometry">
            <Array as="points">
              <mxPoint x="1880" y="2567" />
              <mxPoint x="1880" y="2592" />
            </Array>
          </mxGeometry>
        </mxCell>
        <mxCell id="H1SZmRDGkIQ40qrhDIBS-93" value="" style="curved=1;startArrow=none;endArrow=block;exitX=0.7;exitY=0.99;entryX=1;entryY=0.45;rounded=0;" edge="1" parent="1" source="H1SZmRDGkIQ40qrhDIBS-15" target="H1SZmRDGkIQ40qrhDIBS-35">
          <mxGeometry relative="1" as="geometry">
            <Array as="points">
              <mxPoint x="1870" y="3060" />
              <mxPoint x="1870" y="3399" />
            </Array>
          </mxGeometry>
        </mxCell>
        <mxCell id="H1SZmRDGkIQ40qrhDIBS-94" value="" style="curved=1;startArrow=none;endArrow=block;exitX=0.44;exitY=1;entryX=1;entryY=0.46;rounded=0;" edge="1" parent="1" source="H1SZmRDGkIQ40qrhDIBS-17" target="H1SZmRDGkIQ40qrhDIBS-36">
          <mxGeometry relative="1" as="geometry">
            <Array as="points">
              <mxPoint x="2118" y="1812" />
              <mxPoint x="2118" y="3803" />
            </Array>
          </mxGeometry>
        </mxCell>
        <mxCell id="H1SZmRDGkIQ40qrhDIBS-95" value="" style="curved=1;startArrow=none;endArrow=block;exitX=0.33;exitY=1;entryX=1;entryY=0.46;rounded=0;" edge="1" parent="1" source="H1SZmRDGkIQ40qrhDIBS-19" target="H1SZmRDGkIQ40qrhDIBS-36">
          <mxGeometry relative="1" as="geometry">
            <Array as="points">
              <mxPoint x="2210" y="3803" />
            </Array>
          </mxGeometry>
        </mxCell>
      </root>
    </mxGraphModel>
  </diagram>
  <diagram id="FRmefNBLCXN5N-SyZ0iz" name="Diagrama - BPMN">
    <mxGraphModel dx="3169" dy="1869" grid="1" gridSize="10" guides="1" tooltips="1" connect="1" arrows="1" fold="1" page="1" pageScale="1" pageWidth="827" pageHeight="1169" math="0" shadow="0">
      <root>
        <mxCell id="0" />
        <mxCell id="1" parent="0" />
        <mxCell id="9_LqtVn1kZyAgJTkGZ_D-1" value="🤖 Inteligência Artificial" style="whiteSpace=wrap;strokeWidth=2;" vertex="1" parent="1">
          <mxGeometry x="3814" y="367" width="914" height="222" as="geometry" />
        </mxCell>
        <mxCell id="9_LqtVn1kZyAgJTkGZ_D-2" value="Sistema" style="whiteSpace=wrap;strokeWidth=2;" vertex="1" parent="1">
          <mxGeometry x="315" y="20" width="7882" height="258" as="geometry" />
        </mxCell>
        <mxCell id="9_LqtVn1kZyAgJTkGZ_D-3" value="Fornecedor" style="whiteSpace=wrap;strokeWidth=2;" vertex="1" parent="1">
          <mxGeometry x="5059" y="424" width="2359" height="109" as="geometry" />
        </mxCell>
        <mxCell id="9_LqtVn1kZyAgJTkGZ_D-4" value="Convidado" style="whiteSpace=wrap;strokeWidth=2;" vertex="1" parent="1">
          <mxGeometry x="1646" y="298" width="799" height="375" as="geometry" />
        </mxCell>
        <mxCell id="9_LqtVn1kZyAgJTkGZ_D-5" value="Organizador" style="whiteSpace=wrap;strokeWidth=2;" vertex="1" parent="1">
          <mxGeometry x="20" y="693" width="8418" height="206" as="geometry" />
        </mxCell>
        <mxCell id="9_LqtVn1kZyAgJTkGZ_D-6" value="🟢 Início: Login / Cadastro" style="rounded=1;whiteSpace=wrap;arcSize=50;strokeWidth=2;" vertex="1" parent="1">
          <mxGeometry x="45" y="789" width="220" height="39" as="geometry" />
        </mxCell>
        <mxCell id="9_LqtVn1kZyAgJTkGZ_D-7" value="📝 Criar / Editar Evento" style="rounded=1;whiteSpace=wrap;arcSize=50;strokeWidth=2;" vertex="1" parent="1">
          <mxGeometry x="600" y="758" width="201" height="39" as="geometry" />
        </mxCell>
        <mxCell id="9_LqtVn1kZyAgJTkGZ_D-8" value="👥 Configurar Espaço / Lista Convidados" style="rounded=1;whiteSpace=wrap;arcSize=50;strokeWidth=2;" vertex="1" parent="1">
          <mxGeometry x="851" y="779" width="231" height="63" as="geometry" />
        </mxCell>
        <mxCell id="9_LqtVn1kZyAgJTkGZ_D-9" value="✉ Disparar Convites" style="rounded=1;whiteSpace=wrap;arcSize=50;strokeWidth=2;" vertex="1" parent="1">
          <mxGeometry x="1150" y="770" width="170" height="39" as="geometry" />
        </mxCell>
        <mxCell id="9_LqtVn1kZyAgJTkGZ_D-10" value="💰 Gerir Orçamento" style="rounded=1;whiteSpace=wrap;arcSize=50;strokeWidth=2;" vertex="1" parent="1">
          <mxGeometry x="3592" y="789" width="172" height="39" as="geometry" />
        </mxCell>
        <mxCell id="9_LqtVn1kZyAgJTkGZ_D-11" value="📊 Selecionar Fornecedores" style="rounded=1;whiteSpace=wrap;arcSize=50;strokeWidth=2;" vertex="1" parent="1">
          <mxGeometry x="4778" y="777" width="231" height="63" as="geometry" />
        </mxCell>
        <mxCell id="9_LqtVn1kZyAgJTkGZ_D-12" value="🤝 Negociar Fornecedor" style="rounded=1;whiteSpace=wrap;arcSize=50;strokeWidth=2;" vertex="1" parent="1">
          <mxGeometry x="5526" y="789" width="200" height="39" as="geometry" />
        </mxCell>
        <mxCell id="9_LqtVn1kZyAgJTkGZ_D-13" value="💳 Efetuar Pagamento" style="rounded=1;whiteSpace=wrap;arcSize=50;strokeWidth=2;" vertex="1" parent="1">
          <mxGeometry x="5776" y="789" width="188" height="39" as="geometry" />
        </mxCell>
        <mxCell id="9_LqtVn1kZyAgJTkGZ_D-14" value="💳 Integral ou Sinal?" style="shape=hexagon;perimeter=hexagonPerimeter2;fixedSize=1;strokeWidth=2;whiteSpace=wrap;" vertex="1" parent="1">
          <mxGeometry x="6014" y="789" width="184" height="39" as="geometry" />
        </mxCell>
        <mxCell id="9_LqtVn1kZyAgJTkGZ_D-15" value="✅ Tudo pronto?" style="shape=hexagon;perimeter=hexagonPerimeter2;fixedSize=1;strokeWidth=2;whiteSpace=wrap;" vertex="1" parent="1">
          <mxGeometry x="2806" y="825" width="153" height="39" as="geometry" />
        </mxCell>
        <mxCell id="9_LqtVn1kZyAgJTkGZ_D-16" value="📋 Checklist / Gamificação" style="rounded=1;whiteSpace=wrap;arcSize=50;strokeWidth=2;" vertex="1" parent="1">
          <mxGeometry x="3038" y="825" width="224" height="39" as="geometry" />
        </mxCell>
        <mxCell id="9_LqtVn1kZyAgJTkGZ_D-17" value="📌 Pré-Evento" style="rounded=1;whiteSpace=wrap;arcSize=50;strokeWidth=2;" vertex="1" parent="1">
          <mxGeometry x="7058" y="789" width="129" height="39" as="geometry" />
        </mxCell>
        <mxCell id="9_LqtVn1kZyAgJTkGZ_D-18" value="📝 Pós-Evento / Avaliações" style="rounded=1;whiteSpace=wrap;arcSize=50;strokeWidth=2;" vertex="1" parent="1">
          <mxGeometry x="7468" y="789" width="222" height="39" as="geometry" />
        </mxCell>
        <mxCell id="9_LqtVn1kZyAgJTkGZ_D-19" value="🔴 Fim do Processo" style="rounded=1;whiteSpace=wrap;arcSize=50;strokeWidth=2;" vertex="1" parent="1">
          <mxGeometry x="8247" y="789" width="166" height="39" as="geometry" />
        </mxCell>
        <mxCell id="9_LqtVn1kZyAgJTkGZ_D-20" value="✉ Recebe Convite" style="rounded=1;whiteSpace=wrap;arcSize=50;strokeWidth=2;" vertex="1" parent="1">
          <mxGeometry x="1671" y="375" width="156" height="39" as="geometry" />
        </mxCell>
        <mxCell id="9_LqtVn1kZyAgJTkGZ_D-21" value="🌐 Acessa Espaço do Convidado" style="rounded=1;whiteSpace=wrap;arcSize=50;strokeWidth=2;" vertex="1" parent="1">
          <mxGeometry x="1909" y="363" width="231" height="63" as="geometry" />
        </mxCell>
        <mxCell id="9_LqtVn1kZyAgJTkGZ_D-22" value="✔ RSVP - Confirma Presença" style="rounded=1;whiteSpace=wrap;arcSize=50;strokeWidth=2;" vertex="1" parent="1">
          <mxGeometry x="2189" y="575" width="231" height="63" as="geometry" />
        </mxCell>
        <mxCell id="9_LqtVn1kZyAgJTkGZ_D-23" value="ℹ Consulta Informações" style="rounded=1;whiteSpace=wrap;arcSize=50;strokeWidth=2;" vertex="1" parent="1">
          <mxGeometry x="2210" y="373" width="189" height="39" as="geometry" />
        </mxCell>
        <mxCell id="9_LqtVn1kZyAgJTkGZ_D-24" value="🎶 Espaço Interativo - Playlist / Fotos / Wishlist" style="rounded=1;whiteSpace=wrap;arcSize=50;strokeWidth=2;" vertex="1" parent="1">
          <mxGeometry x="2189" y="462" width="231" height="63" as="geometry" />
        </mxCell>
        <mxCell id="9_LqtVn1kZyAgJTkGZ_D-25" value="📩 Recebe Solicitação" style="rounded=1;whiteSpace=wrap;arcSize=50;strokeWidth=2;" vertex="1" parent="1">
          <mxGeometry x="5084" y="459" width="186" height="39" as="geometry" />
        </mxCell>
        <mxCell id="9_LqtVn1kZyAgJTkGZ_D-26" value="📑 Envia Proposta" style="rounded=1;whiteSpace=wrap;arcSize=50;strokeWidth=2;" vertex="1" parent="1">
          <mxGeometry x="5320" y="459" width="156" height="39" as="geometry" />
        </mxCell>
        <mxCell id="9_LqtVn1kZyAgJTkGZ_D-27" value="📌 Confirma Reserva" style="rounded=1;whiteSpace=wrap;arcSize=50;strokeWidth=2;" vertex="1" parent="1">
          <mxGeometry x="6831" y="459" width="177" height="39" as="geometry" />
        </mxCell>
        <mxCell id="9_LqtVn1kZyAgJTkGZ_D-28" value="⚙ Executa Serviço" style="rounded=1;whiteSpace=wrap;arcSize=50;strokeWidth=2;" vertex="1" parent="1">
          <mxGeometry x="7237" y="459" width="156" height="39" as="geometry" />
        </mxCell>
        <mxCell id="9_LqtVn1kZyAgJTkGZ_D-29" value="🔐 Autenticação e Sessão" style="rounded=1;whiteSpace=wrap;arcSize=50;strokeWidth=2;" vertex="1" parent="1">
          <mxGeometry x="340" y="138" width="210" height="39" as="geometry" />
        </mxCell>
        <mxCell id="9_LqtVn1kZyAgJTkGZ_D-30" value="💾 Persistência de Dados" style="rounded=1;whiteSpace=wrap;arcSize=50;strokeWidth=2;" vertex="1" parent="1">
          <mxGeometry x="1132" y="138" width="206" height="39" as="geometry" />
        </mxCell>
        <mxCell id="9_LqtVn1kZyAgJTkGZ_D-31" value="🌐 Gerar Link do Convite" style="rounded=1;whiteSpace=wrap;arcSize=50;strokeWidth=2;" vertex="1" parent="1">
          <mxGeometry x="1388" y="138" width="208" height="39" as="geometry" />
        </mxCell>
        <mxCell id="9_LqtVn1kZyAgJTkGZ_D-32" value="🌍 Página Pública do Evento" style="rounded=1;whiteSpace=wrap;arcSize=50;strokeWidth=2;" vertex="1" parent="1">
          <mxGeometry x="2189" y="126" width="231" height="63" as="geometry" />
        </mxCell>
        <mxCell id="9_LqtVn1kZyAgJTkGZ_D-33" value="✔ Coletar RSVP" style="rounded=1;whiteSpace=wrap;arcSize=50;strokeWidth=2;" vertex="1" parent="1">
          <mxGeometry x="2620" y="188" width="135" height="39" as="geometry" />
        </mxCell>
        <mxCell id="9_LqtVn1kZyAgJTkGZ_D-34" value="💳 Controle Financeiro" style="rounded=1;whiteSpace=wrap;arcSize=50;strokeWidth=2;" vertex="1" parent="1">
          <mxGeometry x="6308" y="55" width="193" height="39" as="geometry" />
        </mxCell>
        <mxCell id="9_LqtVn1kZyAgJTkGZ_D-35" value="⏱ Notificações e Lembretes" style="rounded=1;whiteSpace=wrap;arcSize=50;strokeWidth=2;" vertex="1" parent="1">
          <mxGeometry x="6550" y="104" width="231" height="63" as="geometry" />
        </mxCell>
        <mxCell id="9_LqtVn1kZyAgJTkGZ_D-36" value="📘 Tutoriais por Módulo" style="rounded=1;whiteSpace=wrap;arcSize=50;strokeWidth=2;" vertex="1" parent="1">
          <mxGeometry x="7968" y="93" width="197" height="39" as="geometry" />
        </mxCell>
        <mxCell id="9_LqtVn1kZyAgJTkGZ_D-37" value="📊 Relatórios / KPIs" style="rounded=1;whiteSpace=wrap;arcSize=50;strokeWidth=2;" vertex="1" parent="1">
          <mxGeometry x="7740" y="182" width="170" height="39" as="geometry" />
        </mxCell>
        <mxCell id="9_LqtVn1kZyAgJTkGZ_D-38" value="📈 Relatórios Inteligentes" style="rounded=1;whiteSpace=wrap;arcSize=50;strokeWidth=2;" vertex="1" parent="1">
          <mxGeometry x="7960" y="182" width="212" height="39" as="geometry" />
        </mxCell>
        <mxCell id="9_LqtVn1kZyAgJTkGZ_D-39" value="🏅 Gamificação do Checklist" style="rounded=1;whiteSpace=wrap;arcSize=50;strokeWidth=2;" vertex="1" parent="1">
          <mxGeometry x="3311" y="180" width="231" height="63" as="geometry" />
        </mxCell>
        <mxCell id="9_LqtVn1kZyAgJTkGZ_D-40" value="🔍 Analisar Orçamento" style="rounded=1;whiteSpace=wrap;arcSize=50;strokeWidth=2;" vertex="1" parent="1">
          <mxGeometry x="3858" y="402" width="191" height="39" as="geometry" />
        </mxCell>
        <mxCell id="9_LqtVn1kZyAgJTkGZ_D-41" value="🌐 Buscar Cotações" style="rounded=1;whiteSpace=wrap;arcSize=50;strokeWidth=2;" vertex="1" parent="1">
          <mxGeometry x="4120" y="402" width="168" height="39" as="geometry" />
        </mxCell>
        <mxCell id="9_LqtVn1kZyAgJTkGZ_D-42" value="🏆 Top 3 Fornecedores" style="rounded=1;whiteSpace=wrap;arcSize=50;strokeWidth=2;" vertex="1" parent="1">
          <mxGeometry x="4513" y="402" width="190" height="39" as="geometry" />
        </mxCell>
        <mxCell id="9_LqtVn1kZyAgJTkGZ_D-43" value="📅 Plano Proativo do Evento" style="rounded=1;whiteSpace=wrap;arcSize=50;strokeWidth=2;" vertex="1" parent="1">
          <mxGeometry x="3839" y="491" width="231" height="63" as="geometry" />
        </mxCell>
        <mxCell id="9_LqtVn1kZyAgJTkGZ_D-44" value="" style="curved=1;startArrow=none;endArrow=block;exitX=1;exitY=0.49;entryX=0.48;entryY=0.99;rounded=0;" edge="1" parent="1" source="9_LqtVn1kZyAgJTkGZ_D-6" target="9_LqtVn1kZyAgJTkGZ_D-29">
          <mxGeometry relative="1" as="geometry">
            <Array as="points">
              <mxPoint x="315" y="808" />
            </Array>
          </mxGeometry>
        </mxCell>
        <mxCell id="9_LqtVn1kZyAgJTkGZ_D-45" value="" style="curved=1;startArrow=none;endArrow=block;exitX=1;exitY=0.49;entryX=0.48;entryY=0;rounded=0;" edge="1" parent="1" source="9_LqtVn1kZyAgJTkGZ_D-29" target="9_LqtVn1kZyAgJTkGZ_D-7">
          <mxGeometry relative="1" as="geometry">
            <Array as="points">
              <mxPoint x="575" y="157" />
            </Array>
          </mxGeometry>
        </mxCell>
        <mxCell id="9_LqtVn1kZyAgJTkGZ_D-46" value="" style="curved=1;startArrow=none;endArrow=block;exitX=0.76;exitY=0;entryX=0.48;entryY=0.99;rounded=0;" edge="1" parent="1" source="9_LqtVn1kZyAgJTkGZ_D-7" target="9_LqtVn1kZyAgJTkGZ_D-30">
          <mxGeometry relative="1" as="geometry">
            <Array as="points">
              <mxPoint x="826" y="730" />
              <mxPoint x="1107" y="730" />
            </Array>
          </mxGeometry>
        </mxCell>
        <mxCell id="9_LqtVn1kZyAgJTkGZ_D-47" value="" style="curved=1;startArrow=none;endArrow=block;exitX=0.86;exitY=1;entryX=0;entryY=0.5;rounded=0;" edge="1" parent="1" source="9_LqtVn1kZyAgJTkGZ_D-7" target="9_LqtVn1kZyAgJTkGZ_D-8">
          <mxGeometry relative="1" as="geometry">
            <Array as="points">
              <mxPoint x="826" y="811" />
            </Array>
          </mxGeometry>
        </mxCell>
        <mxCell id="9_LqtVn1kZyAgJTkGZ_D-48" value="" style="curved=1;startArrow=none;endArrow=block;exitX=0.9;exitY=0;entryX=0.48;entryY=0.99;rounded=0;" edge="1" parent="1" source="9_LqtVn1kZyAgJTkGZ_D-8" target="9_LqtVn1kZyAgJTkGZ_D-30">
          <mxGeometry relative="1" as="geometry">
            <Array as="points">
              <mxPoint x="1107" y="764" />
            </Array>
          </mxGeometry>
        </mxCell>
        <mxCell id="9_LqtVn1kZyAgJTkGZ_D-49" value="" style="curved=1;startArrow=none;endArrow=block;exitX=1;exitY=0.23;entryX=0;entryY=0.5;rounded=0;" edge="1" parent="1" source="9_LqtVn1kZyAgJTkGZ_D-8" target="9_LqtVn1kZyAgJTkGZ_D-9">
          <mxGeometry relative="1" as="geometry">
            <Array as="points">
              <mxPoint x="1107" y="790" />
            </Array>
          </mxGeometry>
        </mxCell>
        <mxCell id="9_LqtVn1kZyAgJTkGZ_D-50" value="" style="curved=1;startArrow=none;endArrow=block;exitX=1;exitY=0.06;entryX=0.48;entryY=0.99;rounded=0;" edge="1" parent="1" source="9_LqtVn1kZyAgJTkGZ_D-9" target="9_LqtVn1kZyAgJTkGZ_D-31">
          <mxGeometry relative="1" as="geometry">
            <Array as="points">
              <mxPoint x="1363" y="764" />
            </Array>
          </mxGeometry>
        </mxCell>
        <mxCell id="9_LqtVn1kZyAgJTkGZ_D-51" value="" style="curved=1;startArrow=none;endArrow=block;exitX=1;exitY=0.49;entryX=0.44;entryY=0;rounded=0;" edge="1" parent="1" source="9_LqtVn1kZyAgJTkGZ_D-31" target="9_LqtVn1kZyAgJTkGZ_D-20">
          <mxGeometry relative="1" as="geometry">
            <Array as="points">
              <mxPoint x="1646" y="157" />
            </Array>
          </mxGeometry>
        </mxCell>
        <mxCell id="9_LqtVn1kZyAgJTkGZ_D-52" value="" style="curved=1;startArrow=none;endArrow=block;exitX=1;exitY=0.5;entryX=0;entryY=0.5;rounded=0;" edge="1" parent="1" source="9_LqtVn1kZyAgJTkGZ_D-20" target="9_LqtVn1kZyAgJTkGZ_D-21">
          <mxGeometry relative="1" as="geometry">
            <Array as="points" />
          </mxGeometry>
        </mxCell>
        <mxCell id="9_LqtVn1kZyAgJTkGZ_D-53" value="" style="curved=1;startArrow=none;endArrow=block;exitX=0.75;exitY=0;entryX=0.38;entryY=0.99;rounded=0;" edge="1" parent="1" source="9_LqtVn1kZyAgJTkGZ_D-21" target="9_LqtVn1kZyAgJTkGZ_D-32">
          <mxGeometry relative="1" as="geometry">
            <Array as="points">
              <mxPoint x="2164" y="318" />
            </Array>
          </mxGeometry>
        </mxCell>
        <mxCell id="9_LqtVn1kZyAgJTkGZ_D-54" value="" style="curved=1;startArrow=none;endArrow=block;exitX=0.59;exitY=1;entryX=0;entryY=0.5;rounded=0;" edge="1" parent="1" source="9_LqtVn1kZyAgJTkGZ_D-21" target="9_LqtVn1kZyAgJTkGZ_D-22">
          <mxGeometry relative="1" as="geometry">
            <Array as="points">
              <mxPoint x="2164" y="607" />
            </Array>
          </mxGeometry>
        </mxCell>
        <mxCell id="9_LqtVn1kZyAgJTkGZ_D-55" value="" style="curved=1;startArrow=none;endArrow=block;exitX=0.65;exitY=0;entryX=0;entryY=0.3;rounded=0;" edge="1" parent="1" source="9_LqtVn1kZyAgJTkGZ_D-22" target="9_LqtVn1kZyAgJTkGZ_D-33">
          <mxGeometry relative="1" as="geometry">
            <Array as="points">
              <mxPoint x="2445" y="482" />
              <mxPoint x="2533" y="190" />
            </Array>
          </mxGeometry>
        </mxCell>
        <mxCell id="9_LqtVn1kZyAgJTkGZ_D-56" value="" style="curved=1;startArrow=none;endArrow=block;exitX=1;exitY=0.47;entryX=0;entryY=0.5;rounded=0;" edge="1" parent="1" source="9_LqtVn1kZyAgJTkGZ_D-21" target="9_LqtVn1kZyAgJTkGZ_D-23">
          <mxGeometry relative="1" as="geometry">
            <Array as="points">
              <mxPoint x="2164" y="393" />
            </Array>
          </mxGeometry>
        </mxCell>
        <mxCell id="9_LqtVn1kZyAgJTkGZ_D-57" value="" style="curved=1;startArrow=none;endArrow=block;exitX=0.69;exitY=1;entryX=0;entryY=0.5;rounded=0;" edge="1" parent="1" source="9_LqtVn1kZyAgJTkGZ_D-21" target="9_LqtVn1kZyAgJTkGZ_D-24">
          <mxGeometry relative="1" as="geometry">
            <Array as="points">
              <mxPoint x="2164" y="494" />
            </Array>
          </mxGeometry>
        </mxCell>
        <mxCell id="9_LqtVn1kZyAgJTkGZ_D-58" value="" style="curved=1;startArrow=none;endArrow=block;exitX=1;exitY=0.49;entryX=0.48;entryY=-0.01;rounded=0;" edge="1" parent="1" source="9_LqtVn1kZyAgJTkGZ_D-33" target="9_LqtVn1kZyAgJTkGZ_D-15">
          <mxGeometry relative="1" as="geometry">
            <Array as="points">
              <mxPoint x="2781" y="207" />
            </Array>
          </mxGeometry>
        </mxCell>
        <mxCell id="9_LqtVn1kZyAgJTkGZ_D-59" value="Não" style="curved=1;startArrow=none;endArrow=block;exitX=0;exitY=0.49;entryX=1;entryY=0.94;rounded=0;" edge="1" parent="1" source="9_LqtVn1kZyAgJTkGZ_D-15" target="9_LqtVn1kZyAgJTkGZ_D-8">
          <mxGeometry relative="1" as="geometry">
            <Array as="points">
              <mxPoint x="1107" y="844" />
            </Array>
          </mxGeometry>
        </mxCell>
        <mxCell id="9_LqtVn1kZyAgJTkGZ_D-60" value="Sim" style="curved=1;startArrow=none;endArrow=block;exitX=0.99;exitY=0.49;entryX=0;entryY=0.49;rounded=0;" edge="1" parent="1" source="9_LqtVn1kZyAgJTkGZ_D-15" target="9_LqtVn1kZyAgJTkGZ_D-16">
          <mxGeometry relative="1" as="geometry">
            <Array as="points" />
          </mxGeometry>
        </mxCell>
        <mxCell id="9_LqtVn1kZyAgJTkGZ_D-61" value="" style="curved=1;startArrow=none;endArrow=block;exitX=1;exitY=0.49;entryX=0.47;entryY=1;rounded=0;" edge="1" parent="1" source="9_LqtVn1kZyAgJTkGZ_D-16" target="9_LqtVn1kZyAgJTkGZ_D-39">
          <mxGeometry relative="1" as="geometry">
            <Array as="points">
              <mxPoint x="3286" y="844" />
            </Array>
          </mxGeometry>
        </mxCell>
        <mxCell id="9_LqtVn1kZyAgJTkGZ_D-62" value="" style="curved=1;startArrow=none;endArrow=block;exitX=1;exitY=0.5;entryX=0.48;entryY=-0.01;rounded=0;" edge="1" parent="1" source="9_LqtVn1kZyAgJTkGZ_D-39" target="9_LqtVn1kZyAgJTkGZ_D-10">
          <mxGeometry relative="1" as="geometry">
            <Array as="points">
              <mxPoint x="3567" y="212" />
            </Array>
          </mxGeometry>
        </mxCell>
        <mxCell id="9_LqtVn1kZyAgJTkGZ_D-63" value="" style="curved=1;startArrow=none;endArrow=block;exitX=1;exitY=0.14;entryX=0.46;entryY=1.01;rounded=0;" edge="1" parent="1" source="9_LqtVn1kZyAgJTkGZ_D-10" target="9_LqtVn1kZyAgJTkGZ_D-40">
          <mxGeometry relative="1" as="geometry">
            <Array as="points">
              <mxPoint x="3789" y="791" />
              <mxPoint x="3814" y="791" />
            </Array>
          </mxGeometry>
        </mxCell>
        <mxCell id="9_LqtVn1kZyAgJTkGZ_D-64" value="" style="curved=1;startArrow=none;endArrow=block;exitX=1;exitY=0.51;entryX=0;entryY=0.51;rounded=0;" edge="1" parent="1" source="9_LqtVn1kZyAgJTkGZ_D-40" target="9_LqtVn1kZyAgJTkGZ_D-41">
          <mxGeometry relative="1" as="geometry">
            <Array as="points" />
          </mxGeometry>
        </mxCell>
        <mxCell id="9_LqtVn1kZyAgJTkGZ_D-65" value="" style="curved=1;startArrow=none;endArrow=block;exitX=1;exitY=0.51;entryX=0;entryY=0.51;rounded=0;" edge="1" parent="1" source="9_LqtVn1kZyAgJTkGZ_D-41" target="9_LqtVn1kZyAgJTkGZ_D-42">
          <mxGeometry relative="1" as="geometry">
            <Array as="points" />
          </mxGeometry>
        </mxCell>
        <mxCell id="9_LqtVn1kZyAgJTkGZ_D-66" value="" style="curved=1;startArrow=none;endArrow=block;exitX=1;exitY=0.51;entryX=0;entryY=0.49;rounded=0;" edge="1" parent="1" source="9_LqtVn1kZyAgJTkGZ_D-42" target="9_LqtVn1kZyAgJTkGZ_D-11">
          <mxGeometry relative="1" as="geometry">
            <Array as="points">
              <mxPoint x="4728" y="422" />
              <mxPoint x="4753" y="808" />
            </Array>
          </mxGeometry>
        </mxCell>
        <mxCell id="9_LqtVn1kZyAgJTkGZ_D-67" value="" style="curved=1;startArrow=none;endArrow=block;exitX=1;exitY=0.83;entryX=0.44;entryY=1;rounded=0;" edge="1" parent="1" source="9_LqtVn1kZyAgJTkGZ_D-10" target="9_LqtVn1kZyAgJTkGZ_D-43">
          <mxGeometry relative="1" as="geometry">
            <Array as="points">
              <mxPoint x="3789" y="825" />
              <mxPoint x="3814" y="825" />
            </Array>
          </mxGeometry>
        </mxCell>
        <mxCell id="9_LqtVn1kZyAgJTkGZ_D-68" value="" style="curved=1;startArrow=none;endArrow=block;exitX=1;exitY=0.49;entryX=0.46;entryY=0.99;rounded=0;" edge="1" parent="1" source="9_LqtVn1kZyAgJTkGZ_D-11" target="9_LqtVn1kZyAgJTkGZ_D-25">
          <mxGeometry relative="1" as="geometry">
            <Array as="points">
              <mxPoint x="5059" y="808" />
            </Array>
          </mxGeometry>
        </mxCell>
        <mxCell id="9_LqtVn1kZyAgJTkGZ_D-69" value="" style="curved=1;startArrow=none;endArrow=block;exitX=1;exitY=0.49;entryX=0;entryY=0.49;rounded=0;" edge="1" parent="1" source="9_LqtVn1kZyAgJTkGZ_D-25" target="9_LqtVn1kZyAgJTkGZ_D-26">
          <mxGeometry relative="1" as="geometry">
            <Array as="points" />
          </mxGeometry>
        </mxCell>
        <mxCell id="9_LqtVn1kZyAgJTkGZ_D-70" value="" style="curved=1;startArrow=none;endArrow=block;exitX=1;exitY=0.49;entryX=0.46;entryY=-0.01;rounded=0;" edge="1" parent="1" source="9_LqtVn1kZyAgJTkGZ_D-26" target="9_LqtVn1kZyAgJTkGZ_D-12">
          <mxGeometry relative="1" as="geometry">
            <Array as="points">
              <mxPoint x="5501" y="478" />
            </Array>
          </mxGeometry>
        </mxCell>
        <mxCell id="9_LqtVn1kZyAgJTkGZ_D-71" value="" style="curved=1;startArrow=none;endArrow=block;exitX=1;exitY=0.49;entryX=0;entryY=0.49;rounded=0;" edge="1" parent="1" source="9_LqtVn1kZyAgJTkGZ_D-12" target="9_LqtVn1kZyAgJTkGZ_D-13">
          <mxGeometry relative="1" as="geometry">
            <Array as="points" />
          </mxGeometry>
        </mxCell>
        <mxCell id="9_LqtVn1kZyAgJTkGZ_D-72" value="" style="curved=1;startArrow=none;endArrow=block;exitX=1;exitY=0.49;entryX=0;entryY=0.49;rounded=0;" edge="1" parent="1" source="9_LqtVn1kZyAgJTkGZ_D-13" target="9_LqtVn1kZyAgJTkGZ_D-14">
          <mxGeometry relative="1" as="geometry">
            <Array as="points" />
          </mxGeometry>
        </mxCell>
        <mxCell id="9_LqtVn1kZyAgJTkGZ_D-73" value="Integral" style="curved=1;startArrow=none;endArrow=block;exitX=1;exitY=0.14;entryX=0.48;entryY=1;rounded=0;" edge="1" parent="1" source="9_LqtVn1kZyAgJTkGZ_D-14" target="9_LqtVn1kZyAgJTkGZ_D-34">
          <mxGeometry relative="1" as="geometry">
            <Array as="points">
              <mxPoint x="6253" y="787" />
            </Array>
          </mxGeometry>
        </mxCell>
        <mxCell id="9_LqtVn1kZyAgJTkGZ_D-74" value="" style="curved=1;startArrow=none;endArrow=block;exitX=1;exitY=0.15;entryX=0.47;entryY=-0.01;rounded=0;" edge="1" parent="1" source="9_LqtVn1kZyAgJTkGZ_D-34" target="9_LqtVn1kZyAgJTkGZ_D-27">
          <mxGeometry relative="1" as="geometry">
            <Array as="points">
              <mxPoint x="6525" y="57" />
              <mxPoint x="6806" y="57" />
            </Array>
          </mxGeometry>
        </mxCell>
        <mxCell id="9_LqtVn1kZyAgJTkGZ_D-75" value="Sinal" style="curved=1;startArrow=none;endArrow=block;exitX=1;exitY=0.83;entryX=0.48;entryY=1;rounded=0;" edge="1" parent="1" source="9_LqtVn1kZyAgJTkGZ_D-14" target="9_LqtVn1kZyAgJTkGZ_D-34">
          <mxGeometry relative="1" as="geometry">
            <Array as="points">
              <mxPoint x="6253" y="830" />
            </Array>
          </mxGeometry>
        </mxCell>
        <mxCell id="9_LqtVn1kZyAgJTkGZ_D-76" value="" style="curved=1;startArrow=none;endArrow=block;exitX=0.87;exitY=1;entryX=0;entryY=0.14;rounded=0;" edge="1" parent="1" source="9_LqtVn1kZyAgJTkGZ_D-34" target="9_LqtVn1kZyAgJTkGZ_D-35">
          <mxGeometry relative="1" as="geometry">
            <Array as="points">
              <mxPoint x="6525" y="108" />
            </Array>
          </mxGeometry>
        </mxCell>
        <mxCell id="9_LqtVn1kZyAgJTkGZ_D-77" value="" style="curved=1;startArrow=none;endArrow=block;exitX=1;exitY=0.49;entryX=0.46;entryY=-0.01;rounded=0;" edge="1" parent="1" source="9_LqtVn1kZyAgJTkGZ_D-35" target="9_LqtVn1kZyAgJTkGZ_D-27">
          <mxGeometry relative="1" as="geometry">
            <Array as="points">
              <mxPoint x="6806" y="135" />
            </Array>
          </mxGeometry>
        </mxCell>
        <mxCell id="9_LqtVn1kZyAgJTkGZ_D-78" value="" style="curved=1;startArrow=none;endArrow=block;exitX=1;exitY=0.49;entryX=0.46;entryY=-0.01;rounded=0;" edge="1" parent="1" source="9_LqtVn1kZyAgJTkGZ_D-27" target="9_LqtVn1kZyAgJTkGZ_D-17">
          <mxGeometry relative="1" as="geometry">
            <Array as="points">
              <mxPoint x="7033" y="478" />
            </Array>
          </mxGeometry>
        </mxCell>
        <mxCell id="9_LqtVn1kZyAgJTkGZ_D-79" value="" style="curved=1;startArrow=none;endArrow=block;exitX=1;exitY=0.49;entryX=0.46;entryY=0.99;rounded=0;" edge="1" parent="1" source="9_LqtVn1kZyAgJTkGZ_D-17" target="9_LqtVn1kZyAgJTkGZ_D-28">
          <mxGeometry relative="1" as="geometry">
            <Array as="points">
              <mxPoint x="7212" y="808" />
            </Array>
          </mxGeometry>
        </mxCell>
        <mxCell id="9_LqtVn1kZyAgJTkGZ_D-80" value="" style="curved=1;startArrow=none;endArrow=block;exitX=1;exitY=0.49;entryX=0;entryY=0.49;rounded=0;" edge="1" parent="1" source="9_LqtVn1kZyAgJTkGZ_D-28" target="9_LqtVn1kZyAgJTkGZ_D-18">
          <mxGeometry relative="1" as="geometry">
            <Array as="points">
              <mxPoint x="7418" y="478" />
              <mxPoint x="7443" y="808" />
            </Array>
          </mxGeometry>
        </mxCell>
        <mxCell id="9_LqtVn1kZyAgJTkGZ_D-81" value="" style="curved=1;startArrow=none;endArrow=block;exitX=1;exitY=0.49;entryX=0.48;entryY=1;rounded=0;" edge="1" parent="1" source="9_LqtVn1kZyAgJTkGZ_D-18" target="9_LqtVn1kZyAgJTkGZ_D-37">
          <mxGeometry relative="1" as="geometry">
            <Array as="points">
              <mxPoint x="7715" y="808" />
            </Array>
          </mxGeometry>
        </mxCell>
        <mxCell id="9_LqtVn1kZyAgJTkGZ_D-82" value="" style="curved=1;startArrow=none;endArrow=block;exitX=1;exitY=0.5;entryX=0;entryY=0.5;rounded=0;" edge="1" parent="1" source="9_LqtVn1kZyAgJTkGZ_D-37" target="9_LqtVn1kZyAgJTkGZ_D-38">
          <mxGeometry relative="1" as="geometry">
            <Array as="points" />
          </mxGeometry>
        </mxCell>
        <mxCell id="9_LqtVn1kZyAgJTkGZ_D-83" value="" style="curved=1;startArrow=none;endArrow=block;exitX=1;exitY=0.5;entryX=0;entryY=0.49;rounded=0;" edge="1" parent="1" source="9_LqtVn1kZyAgJTkGZ_D-38" target="9_LqtVn1kZyAgJTkGZ_D-19">
          <mxGeometry relative="1" as="geometry">
            <Array as="points">
              <mxPoint x="8197" y="202" />
              <mxPoint x="8222" y="808" />
            </Array>
          </mxGeometry>
        </mxCell>
        <mxCell id="9_LqtVn1kZyAgJTkGZ_D-84" value="✉ convite enviado" style="curved=1;dashed=1;dashPattern=2 3;startArrow=none;endArrow=block;exitX=1;exitY=0.7;entryX=0.47;entryY=1;rounded=0;" edge="1" parent="1" source="9_LqtVn1kZyAgJTkGZ_D-9" target="9_LqtVn1kZyAgJTkGZ_D-20">
          <mxGeometry relative="1" as="geometry">
            <Array as="points">
              <mxPoint x="1363" y="801" />
              <mxPoint x="1646" y="801" />
            </Array>
          </mxGeometry>
        </mxCell>
        <mxCell id="9_LqtVn1kZyAgJTkGZ_D-85" value="RSVP confirmado" style="curved=1;dashed=1;dashPattern=2 3;startArrow=none;endArrow=block;exitX=1;exitY=0.8;entryX=0;entryY=0.67;rounded=0;" edge="1" parent="1" source="9_LqtVn1kZyAgJTkGZ_D-22" target="9_LqtVn1kZyAgJTkGZ_D-33">
          <mxGeometry relative="1" as="geometry">
            <Array as="points">
              <mxPoint x="2445" y="630" />
              <mxPoint x="2533" y="223" />
            </Array>
          </mxGeometry>
        </mxCell>
        <mxCell id="9_LqtVn1kZyAgJTkGZ_D-86" value="⏱ lembrete automático" style="curved=1;dashed=1;dashPattern=2 3;startArrow=none;endArrow=block;exitX=0;exitY=0.62;entryX=0.84;entryY=0;rounded=0;" edge="1" parent="1" source="9_LqtVn1kZyAgJTkGZ_D-35" target="9_LqtVn1kZyAgJTkGZ_D-21">
          <mxGeometry relative="1" as="geometry">
            <Array as="points">
              <mxPoint x="6525" y="145" />
              <mxPoint x="2533" y="145" />
              <mxPoint x="2445" y="338" />
              <mxPoint x="2164" y="338" />
            </Array>
          </mxGeometry>
        </mxCell>
      </root>
    </mxGraphModel>
  </diagram>
  <diagram id="rao8QWf2ZDHs-8O-w5aV" name="Caso de uso">
    <mxGraphModel dx="2194" dy="1294" grid="1" gridSize="10" guides="1" tooltips="1" connect="1" arrows="1" fold="1" page="1" pageScale="1" pageWidth="827" pageHeight="1169" math="0" shadow="0">
      <root>
        <mxCell id="0" />
        <mxCell id="1" parent="0" />
        <mxCell id="MAhs_yfDzZT6ftbfVGkD-1" value="👤 Organizador" style="rounded=1;whiteSpace=wrap;arcSize=50;strokeWidth=2;" vertex="1" parent="1">
          <mxGeometry x="2885" y="20" width="138" height="39" as="geometry" />
        </mxCell>
        <mxCell id="MAhs_yfDzZT6ftbfVGkD-3" value="🏢 Fornecedor" style="rounded=1;whiteSpace=wrap;arcSize=50;strokeWidth=2;" vertex="1" parent="1">
          <mxGeometry x="4104" y="20" width="133" height="39" as="geometry" />
        </mxCell>
        <mxCell id="MAhs_yfDzZT6ftbfVGkD-4" value="🤖 Inteligência Artificial" style="rounded=1;whiteSpace=wrap;arcSize=50;strokeWidth=2;" vertex="1" parent="1">
          <mxGeometry x="945" y="129" width="202" height="39" as="geometry" />
        </mxCell>
        <mxCell id="MAhs_yfDzZT6ftbfVGkD-6" value="Login / Cadastro" style="whiteSpace=wrap;strokeWidth=2;" vertex="1" parent="1">
          <mxGeometry x="1197" y="121" width="179" height="54" as="geometry" />
        </mxCell>
        <mxCell id="MAhs_yfDzZT6ftbfVGkD-7" value="Criar / Editar Evento" style="whiteSpace=wrap;strokeWidth=2;" vertex="1" parent="1">
          <mxGeometry x="1426" y="121" width="210" height="54" as="geometry" />
        </mxCell>
        <mxCell id="MAhs_yfDzZT6ftbfVGkD-8" value="Gerir Lista de Convidados" style="whiteSpace=wrap;strokeWidth=2;" vertex="1" parent="1">
          <mxGeometry x="1686" y="121" width="243" height="54" as="geometry" />
        </mxCell>
        <mxCell id="MAhs_yfDzZT6ftbfVGkD-9" value="Gerir Orçamento" style="whiteSpace=wrap;strokeWidth=2;" vertex="1" parent="1">
          <mxGeometry x="2427" y="423" width="180" height="54" as="geometry" />
        </mxCell>
        <mxCell id="MAhs_yfDzZT6ftbfVGkD-10" value="Solicitar Sugestão de Fornecedores" style="whiteSpace=wrap;strokeWidth=2;" vertex="1" parent="1">
          <mxGeometry x="2580" y="109" width="260" height="78" as="geometry" />
        </mxCell>
        <mxCell id="MAhs_yfDzZT6ftbfVGkD-11" value="Selecionar Fornecedor Sugerido" style="whiteSpace=wrap;strokeWidth=2;" vertex="1" parent="1">
          <mxGeometry x="2890" y="109" width="260" height="78" as="geometry" />
        </mxCell>
        <mxCell id="MAhs_yfDzZT6ftbfVGkD-12" value="Negociar Fornecedor" style="whiteSpace=wrap;strokeWidth=2;" vertex="1" parent="1">
          <mxGeometry x="2998" y="272" width="209" height="54" as="geometry" />
        </mxCell>
        <mxCell id="MAhs_yfDzZT6ftbfVGkD-13" value="Efetuar Pagamento" style="whiteSpace=wrap;strokeWidth=2;" vertex="1" parent="1">
          <mxGeometry x="3074" y="423" width="196" height="54" as="geometry" />
        </mxCell>
        <mxCell id="MAhs_yfDzZT6ftbfVGkD-14" value="Checklist de Tarefas" style="whiteSpace=wrap;strokeWidth=2;" vertex="1" parent="1">
          <mxGeometry x="3309" y="272" width="204" height="54" as="geometry" />
        </mxCell>
        <mxCell id="MAhs_yfDzZT6ftbfVGkD-15" value="Confirmações Finais" style="whiteSpace=wrap;strokeWidth=2;" vertex="1" parent="1">
          <mxGeometry x="3378" y="121" width="203" height="54" as="geometry" />
        </mxCell>
        <mxCell id="MAhs_yfDzZT6ftbfVGkD-16" value="Avaliações e Relatórios" style="whiteSpace=wrap;strokeWidth=2;" vertex="1" parent="1">
          <mxGeometry x="3504" y="423" width="224" height="54" as="geometry" />
        </mxCell>
        <mxCell id="MAhs_yfDzZT6ftbfVGkD-17" value="Receber Convite" style="whiteSpace=wrap;strokeWidth=2;" vertex="1" parent="1">
          <mxGeometry x="580" y="290" width="177" height="54" as="geometry" />
        </mxCell>
        <mxCell id="MAhs_yfDzZT6ftbfVGkD-18" value="Acessar Espaço do Convidado" style="whiteSpace=wrap;strokeWidth=2;" vertex="1" parent="1">
          <mxGeometry x="1060" y="290" width="260" height="78" as="geometry" />
        </mxCell>
        <mxCell id="MAhs_yfDzZT6ftbfVGkD-19" value="Confirmar Presença (RSVP)" style="whiteSpace=wrap;strokeWidth=2;" vertex="1" parent="1">
          <mxGeometry x="700" y="640" width="252" height="54" as="geometry" />
        </mxCell>
        <mxCell id="MAhs_yfDzZT6ftbfVGkD-20" value="Interagir: Playlist / Fotos / Wishlist" style="whiteSpace=wrap;strokeWidth=2;" vertex="1" parent="1">
          <mxGeometry x="620" y="380" width="260" height="78" as="geometry" />
        </mxCell>
        <mxCell id="MAhs_yfDzZT6ftbfVGkD-21" value="Responder Cotação" style="whiteSpace=wrap;strokeWidth=2;" vertex="1" parent="1">
          <mxGeometry x="3651" y="121" width="197" height="54" as="geometry" />
        </mxCell>
        <mxCell id="MAhs_yfDzZT6ftbfVGkD-22" value="Enviar Proposta" style="whiteSpace=wrap;strokeWidth=2;" vertex="1" parent="1">
          <mxGeometry x="3898" y="121" width="171" height="54" as="geometry" />
        </mxCell>
        <mxCell id="MAhs_yfDzZT6ftbfVGkD-23" value="Confirmar Reserva/Compra" style="whiteSpace=wrap;strokeWidth=2;" vertex="1" parent="1">
          <mxGeometry x="4118" y="121" width="255" height="54" as="geometry" />
        </mxCell>
        <mxCell id="MAhs_yfDzZT6ftbfVGkD-24" value="Executar Serviço" style="whiteSpace=wrap;strokeWidth=2;" vertex="1" parent="1">
          <mxGeometry x="4423" y="121" width="179" height="54" as="geometry" />
        </mxCell>
        <mxCell id="MAhs_yfDzZT6ftbfVGkD-25" value="Analisar Categorias e Itens" style="whiteSpace=wrap;strokeWidth=2;" vertex="1" parent="1">
          <mxGeometry x="1418" y="272" width="250" height="54" as="geometry" />
        </mxCell>
        <mxCell id="MAhs_yfDzZT6ftbfVGkD-26" value="Buscar Cotações" style="whiteSpace=wrap;strokeWidth=2;" vertex="1" parent="1">
          <mxGeometry x="1718" y="272" width="176" height="54" as="geometry" />
        </mxCell>
        <mxCell id="MAhs_yfDzZT6ftbfVGkD-27" value="Sugerir Top 3 Fornecedores" style="whiteSpace=wrap;strokeWidth=2;" vertex="1" parent="1">
          <mxGeometry x="2134" y="272" width="254" height="54" as="geometry" />
        </mxCell>
        <mxCell id="MAhs_yfDzZT6ftbfVGkD-28" value="Persistência de Dados" style="whiteSpace=wrap;strokeWidth=2;" vertex="1" parent="1">
          <mxGeometry x="80" y="590" width="215" height="54" as="geometry" />
        </mxCell>
        <mxCell id="MAhs_yfDzZT6ftbfVGkD-29" value="Notificações e Lembretes" style="whiteSpace=wrap;strokeWidth=2;" vertex="1" parent="1">
          <mxGeometry x="1241" y="600" width="242" height="54" as="geometry" />
        </mxCell>
        <mxCell id="MAhs_yfDzZT6ftbfVGkD-30" value="Controle Financeiro" style="whiteSpace=wrap;strokeWidth=2;" vertex="1" parent="1">
          <mxGeometry x="2504" y="562" width="201" height="54" as="geometry" />
        </mxCell>
        <mxCell id="MAhs_yfDzZT6ftbfVGkD-31" value="Relatórios e Dashboards" style="whiteSpace=wrap;strokeWidth=2;" vertex="1" parent="1">
          <mxGeometry x="3339" y="562" width="231" height="54" as="geometry" />
        </mxCell>
        <mxCell id="MAhs_yfDzZT6ftbfVGkD-32" value="" style="curved=1;startArrow=none;endArrow=block;exitX=0;exitY=0.55;entryX=0.5;entryY=0;rounded=0;" edge="1" parent="1" source="MAhs_yfDzZT6ftbfVGkD-1" target="MAhs_yfDzZT6ftbfVGkD-6">
          <mxGeometry relative="1" as="geometry">
            <Array as="points">
              <mxPoint x="1287" y="84" />
            </Array>
          </mxGeometry>
        </mxCell>
        <mxCell id="MAhs_yfDzZT6ftbfVGkD-33" value="" style="curved=1;startArrow=none;endArrow=block;exitX=0;exitY=0.56;entryX=0.5;entryY=0;rounded=0;" edge="1" parent="1" source="MAhs_yfDzZT6ftbfVGkD-1" target="MAhs_yfDzZT6ftbfVGkD-7">
          <mxGeometry relative="1" as="geometry">
            <Array as="points">
              <mxPoint x="1531" y="84" />
            </Array>
          </mxGeometry>
        </mxCell>
        <mxCell id="MAhs_yfDzZT6ftbfVGkD-34" value="" style="curved=1;startArrow=none;endArrow=block;exitX=0;exitY=0.57;entryX=0.5;entryY=0;rounded=0;" edge="1" parent="1" source="MAhs_yfDzZT6ftbfVGkD-1" target="MAhs_yfDzZT6ftbfVGkD-8">
          <mxGeometry relative="1" as="geometry">
            <Array as="points">
              <mxPoint x="1807" y="84" />
            </Array>
          </mxGeometry>
        </mxCell>
        <mxCell id="MAhs_yfDzZT6ftbfVGkD-35" value="" style="curved=1;startArrow=none;endArrow=block;exitX=0;exitY=0.68;entryX=0.5;entryY=0;rounded=0;" edge="1" parent="1" source="MAhs_yfDzZT6ftbfVGkD-1" target="MAhs_yfDzZT6ftbfVGkD-9">
          <mxGeometry relative="1" as="geometry">
            <Array as="points">
              <mxPoint x="2518" y="84" />
            </Array>
          </mxGeometry>
        </mxCell>
        <mxCell id="MAhs_yfDzZT6ftbfVGkD-36" value="" style="curved=1;startArrow=none;endArrow=block;exitX=0;exitY=0.82;entryX=0.5;entryY=0;rounded=0;" edge="1" parent="1" source="MAhs_yfDzZT6ftbfVGkD-1" target="MAhs_yfDzZT6ftbfVGkD-10">
          <mxGeometry relative="1" as="geometry">
            <Array as="points">
              <mxPoint x="2710" y="84" />
            </Array>
          </mxGeometry>
        </mxCell>
        <mxCell id="MAhs_yfDzZT6ftbfVGkD-37" value="" style="curved=1;startArrow=none;endArrow=block;exitX=0.71;exitY=1;entryX=0.5;entryY=0;rounded=0;" edge="1" parent="1" source="MAhs_yfDzZT6ftbfVGkD-1" target="MAhs_yfDzZT6ftbfVGkD-11">
          <mxGeometry relative="1" as="geometry">
            <Array as="points">
              <mxPoint x="3020" y="84" />
            </Array>
          </mxGeometry>
        </mxCell>
        <mxCell id="MAhs_yfDzZT6ftbfVGkD-38" value="" style="curved=1;startArrow=none;endArrow=block;exitX=1;exitY=0.84;entryX=0.64;entryY=0;rounded=0;" edge="1" parent="1" source="MAhs_yfDzZT6ftbfVGkD-1" target="MAhs_yfDzZT6ftbfVGkD-12">
          <mxGeometry relative="1" as="geometry">
            <Array as="points">
              <mxPoint x="3185" y="84" />
              <mxPoint x="3185" y="224" />
            </Array>
          </mxGeometry>
        </mxCell>
        <mxCell id="MAhs_yfDzZT6ftbfVGkD-39" value="" style="curved=1;startArrow=none;endArrow=block;exitX=1;exitY=0.75;entryX=0.67;entryY=0;rounded=0;" edge="1" parent="1" source="MAhs_yfDzZT6ftbfVGkD-1" target="MAhs_yfDzZT6ftbfVGkD-13">
          <mxGeometry relative="1" as="geometry">
            <Array as="points">
              <mxPoint x="3264" y="84" />
              <mxPoint x="3264" y="375" />
            </Array>
          </mxGeometry>
        </mxCell>
        <mxCell id="MAhs_yfDzZT6ftbfVGkD-40" value="" style="curved=1;startArrow=none;endArrow=block;exitX=1;exitY=0.7;entryX=0.38;entryY=0;rounded=0;" edge="1" parent="1" source="MAhs_yfDzZT6ftbfVGkD-1" target="MAhs_yfDzZT6ftbfVGkD-14">
          <mxGeometry relative="1" as="geometry">
            <Array as="points">
              <mxPoint x="3343" y="84" />
              <mxPoint x="3343" y="224" />
            </Array>
          </mxGeometry>
        </mxCell>
        <mxCell id="MAhs_yfDzZT6ftbfVGkD-41" value="" style="curved=1;startArrow=none;endArrow=block;exitX=1;exitY=0.65;entryX=0.5;entryY=0;rounded=0;" edge="1" parent="1" source="MAhs_yfDzZT6ftbfVGkD-1" target="MAhs_yfDzZT6ftbfVGkD-15">
          <mxGeometry relative="1" as="geometry">
            <Array as="points">
              <mxPoint x="3479" y="84" />
            </Array>
          </mxGeometry>
        </mxCell>
        <mxCell id="MAhs_yfDzZT6ftbfVGkD-42" value="" style="curved=1;startArrow=none;endArrow=block;exitX=1;exitY=0.62;entryX=0.5;entryY=0;rounded=0;" edge="1" parent="1" source="MAhs_yfDzZT6ftbfVGkD-1" target="MAhs_yfDzZT6ftbfVGkD-16">
          <mxGeometry relative="1" as="geometry">
            <Array as="points">
              <mxPoint x="3616" y="84" />
            </Array>
          </mxGeometry>
        </mxCell>
        <mxCell id="MAhs_yfDzZT6ftbfVGkD-43" value="" style="curved=1;startArrow=none;endArrow=block;exitX=0;exitY=1;entryX=0;entryY=0.27;rounded=0;exitDx=0;exitDy=0;exitPerimeter=0;" edge="1" parent="1" source="MAhs_yfDzZT6ftbfVGkD-72" target="MAhs_yfDzZT6ftbfVGkD-17">
          <mxGeometry relative="1" as="geometry">
            <Array as="points">
              <mxPoint x="222" y="224" />
            </Array>
          </mxGeometry>
        </mxCell>
        <mxCell id="MAhs_yfDzZT6ftbfVGkD-44" value="" style="curved=1;startArrow=none;endArrow=block;entryX=0;entryY=0.37;rounded=0;exitX=1;exitY=1;exitDx=0;exitDy=0;exitPerimeter=0;" edge="1" parent="1" source="MAhs_yfDzZT6ftbfVGkD-72" target="MAhs_yfDzZT6ftbfVGkD-18">
          <mxGeometry relative="1" as="geometry">
            <Array as="points">
              <mxPoint x="242" y="224" />
            </Array>
            <mxPoint x="390" y="140" as="sourcePoint" />
          </mxGeometry>
        </mxCell>
        <mxCell id="MAhs_yfDzZT6ftbfVGkD-45" value="" style="curved=1;startArrow=none;endArrow=block;exitX=0;exitY=1;entryX=0.17;entryY=0;rounded=0;exitDx=0;exitDy=0;exitPerimeter=0;" edge="1" parent="1" source="MAhs_yfDzZT6ftbfVGkD-72" target="MAhs_yfDzZT6ftbfVGkD-19">
          <mxGeometry relative="1" as="geometry">
            <Array as="points">
              <mxPoint x="262" y="224" />
              <mxPoint x="262" y="375" />
            </Array>
          </mxGeometry>
        </mxCell>
        <mxCell id="MAhs_yfDzZT6ftbfVGkD-46" value="" style="curved=1;startArrow=none;endArrow=block;entryX=0;entryY=0.17;rounded=0;" edge="1" parent="1" source="MAhs_yfDzZT6ftbfVGkD-72" target="MAhs_yfDzZT6ftbfVGkD-20">
          <mxGeometry relative="1" as="geometry">
            <Array as="points">
              <mxPoint x="425" y="224" />
              <mxPoint x="425" y="375" />
            </Array>
            <mxPoint x="290" y="150" as="sourcePoint" />
          </mxGeometry>
        </mxCell>
        <mxCell id="MAhs_yfDzZT6ftbfVGkD-47" value="" style="curved=1;startArrow=none;endArrow=block;exitX=0;exitY=0.68;entryX=0.5;entryY=0;rounded=0;" edge="1" parent="1" source="MAhs_yfDzZT6ftbfVGkD-3" target="MAhs_yfDzZT6ftbfVGkD-21">
          <mxGeometry relative="1" as="geometry">
            <Array as="points">
              <mxPoint x="3749" y="84" />
            </Array>
          </mxGeometry>
        </mxCell>
        <mxCell id="MAhs_yfDzZT6ftbfVGkD-48" value="" style="curved=1;startArrow=none;endArrow=block;exitX=0;exitY=0.9;entryX=0.5;entryY=0;rounded=0;" edge="1" parent="1" source="MAhs_yfDzZT6ftbfVGkD-3" target="MAhs_yfDzZT6ftbfVGkD-22">
          <mxGeometry relative="1" as="geometry">
            <Array as="points">
              <mxPoint x="3983" y="84" />
            </Array>
          </mxGeometry>
        </mxCell>
        <mxCell id="MAhs_yfDzZT6ftbfVGkD-49" value="" style="curved=1;startArrow=none;endArrow=block;exitX=0.75;exitY=1;entryX=0.5;entryY=0;rounded=0;" edge="1" parent="1" source="MAhs_yfDzZT6ftbfVGkD-3" target="MAhs_yfDzZT6ftbfVGkD-23">
          <mxGeometry relative="1" as="geometry">
            <Array as="points">
              <mxPoint x="4246" y="84" />
            </Array>
          </mxGeometry>
        </mxCell>
        <mxCell id="MAhs_yfDzZT6ftbfVGkD-50" value="" style="curved=1;startArrow=none;endArrow=block;exitX=1;exitY=0.72;entryX=0.5;entryY=0;rounded=0;" edge="1" parent="1" source="MAhs_yfDzZT6ftbfVGkD-3" target="MAhs_yfDzZT6ftbfVGkD-24">
          <mxGeometry relative="1" as="geometry">
            <Array as="points">
              <mxPoint x="4513" y="84" />
            </Array>
          </mxGeometry>
        </mxCell>
        <mxCell id="MAhs_yfDzZT6ftbfVGkD-51" value="" style="curved=1;startArrow=none;endArrow=block;exitX=0.16;exitY=0.99;entryX=0;entryY=0.27;rounded=0;" edge="1" parent="1" source="MAhs_yfDzZT6ftbfVGkD-4" target="MAhs_yfDzZT6ftbfVGkD-25">
          <mxGeometry relative="1" as="geometry">
            <Array as="points">
              <mxPoint x="782" y="224" />
            </Array>
          </mxGeometry>
        </mxCell>
        <mxCell id="MAhs_yfDzZT6ftbfVGkD-52" value="" style="curved=1;startArrow=none;endArrow=block;exitX=0.77;exitY=0.99;entryX=0;entryY=0.28;rounded=0;" edge="1" parent="1" source="MAhs_yfDzZT6ftbfVGkD-4" target="MAhs_yfDzZT6ftbfVGkD-26">
          <mxGeometry relative="1" as="geometry">
            <Array as="points">
              <mxPoint x="1258" y="224" />
            </Array>
          </mxGeometry>
        </mxCell>
        <mxCell id="MAhs_yfDzZT6ftbfVGkD-53" value="" style="curved=1;startArrow=none;endArrow=block;exitX=0.95;exitY=0.99;entryX=0;entryY=0.29;rounded=0;" edge="1" parent="1" source="MAhs_yfDzZT6ftbfVGkD-4" target="MAhs_yfDzZT6ftbfVGkD-27">
          <mxGeometry relative="1" as="geometry">
            <Array as="points">
              <mxPoint x="1401" y="224" />
            </Array>
          </mxGeometry>
        </mxCell>
        <mxCell id="MAhs_yfDzZT6ftbfVGkD-54" value="" style="curved=1;startArrow=none;endArrow=block;entryX=0.5;entryY=0;rounded=0;" edge="1" parent="1" source="MAhs_yfDzZT6ftbfVGkD-75" target="MAhs_yfDzZT6ftbfVGkD-28">
          <mxGeometry relative="1" as="geometry">
            <Array as="points">
              <mxPoint x="127" y="526" />
            </Array>
          </mxGeometry>
        </mxCell>
        <mxCell id="MAhs_yfDzZT6ftbfVGkD-55" value="" style="curved=1;startArrow=none;endArrow=block;exitX=1;exitY=1;entryX=0;entryY=0.35;rounded=0;exitDx=0;exitDy=0;exitPerimeter=0;" edge="1" parent="1" source="MAhs_yfDzZT6ftbfVGkD-75" target="MAhs_yfDzZT6ftbfVGkD-29">
          <mxGeometry relative="1" as="geometry">
            <Array as="points">
              <mxPoint x="497" y="526" />
            </Array>
          </mxGeometry>
        </mxCell>
        <mxCell id="MAhs_yfDzZT6ftbfVGkD-56" value="" style="curved=1;startArrow=none;endArrow=block;entryX=0;entryY=0.39;rounded=0;exitX=0;exitY=1;exitDx=0;exitDy=0;exitPerimeter=0;" edge="1" parent="1" source="MAhs_yfDzZT6ftbfVGkD-75" target="MAhs_yfDzZT6ftbfVGkD-30">
          <mxGeometry relative="1" as="geometry">
            <Array as="points">
              <mxPoint x="1554" y="526" />
            </Array>
            <mxPoint x="205" y="480" as="sourcePoint" />
          </mxGeometry>
        </mxCell>
        <mxCell id="MAhs_yfDzZT6ftbfVGkD-57" value="" style="curved=1;startArrow=none;endArrow=block;exitX=0;exitY=1;entryX=0;entryY=0.43;rounded=0;exitDx=0;exitDy=0;exitPerimeter=0;" edge="1" parent="1" source="MAhs_yfDzZT6ftbfVGkD-75" target="MAhs_yfDzZT6ftbfVGkD-31">
          <mxGeometry relative="1" as="geometry">
            <Array as="points">
              <mxPoint x="1642" y="526" />
            </Array>
          </mxGeometry>
        </mxCell>
        <mxCell id="MAhs_yfDzZT6ftbfVGkD-58" value="&amp;lt;&amp;gt;" style="curved=1;startArrow=none;endArrow=block;exitX=0.33;exitY=1;entryX=1;entryY=0.34;rounded=0;" edge="1" parent="1" source="MAhs_yfDzZT6ftbfVGkD-10" target="MAhs_yfDzZT6ftbfVGkD-25">
          <mxGeometry relative="1" as="geometry">
            <Array as="points">
              <mxPoint x="2626" y="224" />
            </Array>
          </mxGeometry>
        </mxCell>
        <mxCell id="MAhs_yfDzZT6ftbfVGkD-59" value="&amp;lt;&amp;gt;" style="curved=1;startArrow=none;endArrow=block;exitX=0.53;exitY=1;entryX=1;entryY=0.37;rounded=0;" edge="1" parent="1" source="MAhs_yfDzZT6ftbfVGkD-10" target="MAhs_yfDzZT6ftbfVGkD-26">
          <mxGeometry relative="1" as="geometry">
            <Array as="points">
              <mxPoint x="2724" y="224" />
            </Array>
          </mxGeometry>
        </mxCell>
        <mxCell id="MAhs_yfDzZT6ftbfVGkD-60" value="&amp;lt;&amp;gt;" style="curved=1;startArrow=none;endArrow=block;exitX=0.72;exitY=1;entryX=1;entryY=0.18;rounded=0;" edge="1" parent="1" source="MAhs_yfDzZT6ftbfVGkD-10" target="MAhs_yfDzZT6ftbfVGkD-27">
          <mxGeometry relative="1" as="geometry">
            <Array as="points">
              <mxPoint x="2823" y="224" />
            </Array>
          </mxGeometry>
        </mxCell>
        <mxCell id="MAhs_yfDzZT6ftbfVGkD-61" value="&amp;lt;&amp;gt;" style="curved=1;startArrow=none;endArrow=block;exitX=0.5;exitY=1;entryX=0.32;entryY=0;rounded=0;" edge="1" parent="1" source="MAhs_yfDzZT6ftbfVGkD-9" target="MAhs_yfDzZT6ftbfVGkD-30">
          <mxGeometry relative="1" as="geometry">
            <Array as="points">
              <mxPoint x="2518" y="526" />
            </Array>
          </mxGeometry>
        </mxCell>
        <mxCell id="MAhs_yfDzZT6ftbfVGkD-62" value="&amp;lt;&amp;gt;" style="curved=1;startArrow=none;endArrow=block;exitX=0;exitY=0.87;entryX=0.91;entryY=0;rounded=0;" edge="1" parent="1" source="MAhs_yfDzZT6ftbfVGkD-13" target="MAhs_yfDzZT6ftbfVGkD-30">
          <mxGeometry relative="1" as="geometry">
            <Array as="points">
              <mxPoint x="2797" y="526" />
            </Array>
          </mxGeometry>
        </mxCell>
        <mxCell id="MAhs_yfDzZT6ftbfVGkD-63" value="&amp;lt;&amp;gt;" style="curved=1;startArrow=none;endArrow=block;exitX=0.97;exitY=1;entryX=1;entryY=0.43;rounded=0;" edge="1" parent="1" source="MAhs_yfDzZT6ftbfVGkD-13" target="MAhs_yfDzZT6ftbfVGkD-29">
          <mxGeometry relative="1" as="geometry">
            <Array as="points">
              <mxPoint x="3427" y="526" />
            </Array>
          </mxGeometry>
        </mxCell>
        <mxCell id="MAhs_yfDzZT6ftbfVGkD-64" value="&amp;lt;&amp;gt;" style="curved=1;startArrow=none;endArrow=block;exitX=0.5;exitY=1;entryX=0.8;entryY=0;rounded=0;" edge="1" parent="1" source="MAhs_yfDzZT6ftbfVGkD-16" target="MAhs_yfDzZT6ftbfVGkD-31">
          <mxGeometry relative="1" as="geometry">
            <Array as="points">
              <mxPoint x="3616" y="526" />
            </Array>
          </mxGeometry>
        </mxCell>
        <mxCell id="MAhs_yfDzZT6ftbfVGkD-65" value="&amp;lt;&amp;gt;" style="curved=1;startArrow=none;endArrow=block;exitX=0;exitY=0.98;entryX=1;entryY=0.32;rounded=0;" edge="1" parent="1" source="MAhs_yfDzZT6ftbfVGkD-8" target="MAhs_yfDzZT6ftbfVGkD-17">
          <mxGeometry relative="1" as="geometry">
            <Array as="points">
              <mxPoint x="1453" y="224" />
            </Array>
          </mxGeometry>
        </mxCell>
        <mxCell id="MAhs_yfDzZT6ftbfVGkD-66" value="&amp;lt;&amp;gt;" style="curved=1;startArrow=none;endArrow=block;exitX=0.7;exitY=1;entryX=1;entryY=0.32;rounded=0;" edge="1" parent="1" source="MAhs_yfDzZT6ftbfVGkD-8" target="MAhs_yfDzZT6ftbfVGkD-18">
          <mxGeometry relative="1" as="geometry">
            <Array as="points">
              <mxPoint x="1942" y="224" />
            </Array>
          </mxGeometry>
        </mxCell>
        <mxCell id="MAhs_yfDzZT6ftbfVGkD-67" value="&amp;lt;&amp;gt;" style="curved=1;startArrow=none;endArrow=block;exitX=0.2;exitY=1;entryX=1;entryY=0.2;rounded=0;" edge="1" parent="1" source="MAhs_yfDzZT6ftbfVGkD-18" target="MAhs_yfDzZT6ftbfVGkD-19">
          <mxGeometry relative="1" as="geometry">
            <Array as="points">
              <mxPoint x="1085" y="375" />
            </Array>
          </mxGeometry>
        </mxCell>
        <mxCell id="MAhs_yfDzZT6ftbfVGkD-68" value="&amp;lt;&amp;gt;" style="curved=1;startArrow=none;endArrow=block;exitX=1;exitY=0.69;entryX=1;entryY=0.39;rounded=0;" edge="1" parent="1" source="MAhs_yfDzZT6ftbfVGkD-18" target="MAhs_yfDzZT6ftbfVGkD-20">
          <mxGeometry relative="1" as="geometry">
            <Array as="points">
              <mxPoint x="1899" y="375" />
            </Array>
          </mxGeometry>
        </mxCell>
        <mxCell id="MAhs_yfDzZT6ftbfVGkD-69" value="&amp;lt;&amp;gt;" style="curved=1;startArrow=none;endArrow=block;exitX=0.5;exitY=1;entryX=0.36;entryY=0;rounded=0;" edge="1" parent="1" source="MAhs_yfDzZT6ftbfVGkD-11" target="MAhs_yfDzZT6ftbfVGkD-12">
          <mxGeometry relative="1" as="geometry">
            <Array as="points">
              <mxPoint x="3020" y="224" />
            </Array>
          </mxGeometry>
        </mxCell>
        <mxCell id="MAhs_yfDzZT6ftbfVGkD-70" value="&amp;lt;&amp;gt;" style="curved=1;startArrow=none;endArrow=block;exitX=0.5;exitY=1;entryX=0.37;entryY=0;rounded=0;" edge="1" parent="1" source="MAhs_yfDzZT6ftbfVGkD-12" target="MAhs_yfDzZT6ftbfVGkD-13">
          <mxGeometry relative="1" as="geometry">
            <Array as="points">
              <mxPoint x="3102" y="375" />
            </Array>
          </mxGeometry>
        </mxCell>
        <mxCell id="MAhs_yfDzZT6ftbfVGkD-71" value="&amp;lt;&amp;gt;" style="curved=1;startArrow=none;endArrow=block;exitX=0.5;exitY=1;entryX=0.62;entryY=0;rounded=0;" edge="1" parent="1" source="MAhs_yfDzZT6ftbfVGkD-15" target="MAhs_yfDzZT6ftbfVGkD-14">
          <mxGeometry relative="1" as="geometry">
            <Array as="points">
              <mxPoint x="3479" y="224" />
            </Array>
          </mxGeometry>
        </mxCell>
        <mxCell id="MAhs_yfDzZT6ftbfVGkD-72" value="&lt;span style=&quot;text-wrap-mode: wrap;&quot;&gt;👥 Convidado&lt;/span&gt;" style="shape=umlActor;verticalLabelPosition=bottom;verticalAlign=top;html=1;outlineConnect=0;" vertex="1" parent="1">
          <mxGeometry x="260" y="118" width="30" height="60" as="geometry" />
        </mxCell>
        <mxCell id="MAhs_yfDzZT6ftbfVGkD-75" value="&lt;span style=&quot;text-wrap-mode: wrap;&quot;&gt;🖥️ Sistema&lt;/span&gt;" style="shape=umlActor;verticalLabelPosition=bottom;verticalAlign=top;html=1;outlineConnect=0;" vertex="1" parent="1">
          <mxGeometry x="210" y="398" width="30" height="60" as="geometry" />
        </mxCell>
      </root>
    </mxGraphModel>
  </diagram>
</mxfile>
